<svg xmlns="http://www.w3.org/2000/svg" width="178" height="28" viewBox="0 0 178 28" fill="none">
<g clip-path="url(#clip0_258_440)">
<path d="M0.753363 13.1838C1.38117 9.91927 4.26906 7.65918 8.287 7.65918C12.9327 7.65918 16.574 9.66815 16.574 15.9462V27.6233H12.5561L12.0538 25.1121C10.6726 26.8699 8.78924 28 6.02691 28C2.63677 28 0 25.8655 0 21.9731C0 18.0807 3.51569 15.5695 8.41256 15.5695H11.6771V14.6906C11.6771 12.4305 10.0448 11.8027 8.16144 11.8027C6.78027 11.8027 5.3991 12.3049 4.7713 14.0628L0.753363 13.1838ZM7.15695 23.8565C9.41704 23.8565 11.6771 22.3498 11.6771 19.8386V19.4619H8.53812C6.40359 19.3363 5.14798 20.2152 5.14798 21.9731C5.14798 22.852 5.90135 23.8565 7.15695 23.8565Z" fill="#CBD5E1"/>
<path d="M95.426 13.1838C96.0538 9.91927 98.9417 7.65918 102.96 7.65918C107.605 7.65918 111.247 9.66815 111.247 15.9462V27.6233H107.229L106.726 25.1121C105.345 26.8699 103.462 28 100.7 28C97.3094 28 94.6726 25.8655 94.6726 21.9731C94.6726 18.0807 98.1883 15.5695 103.085 15.5695H106.35V14.6906C106.35 12.4305 104.717 11.8027 102.834 11.8027C101.453 11.8027 100.072 12.3049 99.4439 14.0628L95.426 13.1838ZM101.83 23.8565C104.09 23.8565 106.35 22.3498 106.35 19.8386V19.4619H103.085C100.951 19.4619 99.695 20.2152 99.695 21.9731C99.8206 22.852 100.574 23.8565 101.83 23.8565Z" fill="#CBD5E1"/>
<path d="M115.641 27.7489V7.9103H120.538V11.1749C121.919 8.78922 124.179 7.65918 126.314 7.65918C127.193 7.65918 127.946 7.78474 128.7 8.03586L127.821 12.556C127.193 12.1794 126.565 11.9282 125.812 11.9282C122.924 11.9282 120.538 14.3139 120.538 20.5919V27.6233L115.641 27.7489Z" fill="#CBD5E1"/>
<path d="M139.121 7.65919C141.13 7.65919 143.013 8.66368 143.892 9.79372V0H148.789V27.7489H143.892V25.7399C143.265 26.7444 141.507 28.1256 139.121 28.1256C133.22 28.1256 130.206 23.9821 130.206 17.9552C130.206 11.9283 133.22 7.65919 139.121 7.65919ZM139.874 23.8565C142.386 23.8565 144.395 21.722 144.395 17.8296C144.395 13.9372 142.386 11.8027 139.874 11.8027C137.363 11.8027 135.354 13.9372 135.354 17.8296C135.354 21.722 137.363 23.8565 139.874 23.8565Z" fill="#CBD5E1"/>
<path d="M166.368 10.7981L163.48 13.4349C162.601 12.1793 161.22 11.677 160.215 11.677C159.211 11.677 158.332 12.3048 158.332 13.3093C158.332 14.1882 159.085 14.816 160.215 15.1927C162.978 16.1972 167.372 17.0761 167.372 21.2196C167.372 24.8609 164.61 27.7488 160.341 27.7488C156.197 27.7488 153.435 24.8609 152.556 22.4752L156.448 20.3407C157.202 22.2241 158.457 23.6053 160.466 23.6053C161.973 23.6053 162.978 22.8519 162.978 21.4707C162.978 19.8385 160.466 19.4618 158.081 18.4573C155.946 17.5784 154.063 16.1972 154.063 13.1837C154.063 10.1703 156.574 7.40796 160.341 7.40796C162.852 7.53352 165.238 8.91469 166.368 10.7981Z" fill="#CBD5E1"/>
<path d="M65.1659 7.9104L61.6502 21.5965L58.2601 7.9104H53.7399L50.4753 21.5965L47.713 13.6862L47.3363 14.5651L45.8296 19.7131L48.3408 27.749H52.6099L56 14.9418L59.3901 27.749H63.7847L70.0628 7.9104H65.1659Z" fill="#CBD5E1"/>
<path d="M88.6457 7.9104L85.13 21.5965L81.7399 7.9104H77.2197L73.9551 21.5965L71.1928 13.6862L70.8161 14.5651L69.1838 19.7131L71.8206 27.749H76.0897L79.4798 14.9418L82.8699 27.749H87.139L93.5426 7.9104H88.6457Z" fill="#CBD5E1"/>
<path d="M46.5829 7.9104L40.3049 27.6234H36.0359L32.6457 14.9418L29.2556 27.749H24.9865L18.7085 8.03596H23.6054L27.1211 21.5965L30.5112 8.03596H35.0314L38.4215 21.5965L41.9372 8.03596L46.5829 7.9104Z" fill="#CBD5E1"/>
<path d="M173.776 21.3452C175.659 21.3452 177.04 22.7264 177.04 24.6098C177.04 26.4932 175.659 27.8744 173.776 27.8744C171.892 27.8744 170.511 26.4932 170.511 24.6098C170.511 22.7264 171.892 21.3452 173.776 21.3452Z" fill="#CBD5E1"/>
</g>
<defs>
<clipPath id="clip0_258_440">
<rect width="177.04" height="28" fill="white"/>
</clipPath>
</defs>
</svg>