<svg width="150" height="28" viewBox="0 0 150 28" fill="none" xmlns="http://www.w3.org/2000/svg">
<g clip-path="url(#clip0_258_620)">
<path d="M12.8831 0C14.1593 0 15.3374 0.0999258 16.4172 0.395746C17.4971 0.593619 18.3806 0.989364 19.166 1.48405C19.9513 1.97873 20.5403 2.67128 20.933 3.5627C21.3257 4.45214 21.522 5.54143 21.522 6.72867C21.522 8.11279 21.2275 9.30101 20.5403 10.1914C19.9513 11.0809 18.9696 11.8724 17.7916 12.466C19.4605 12.9607 20.7367 13.8501 21.522 15.0383C22.3074 16.2256 22.7982 17.7096 22.7982 19.3915C22.7982 20.7757 22.5037 21.9639 22.0129 22.9533C21.522 23.9426 20.7367 24.833 19.8531 25.4267C18.9696 26.0213 17.8898 26.516 16.7117 26.8118C15.5337 27.1076 14.3557 27.3065 13.1776 27.3065H0.0229492V0H12.8831ZM12.0978 11.0809C13.1776 11.0809 14.0612 10.7841 14.7483 10.2894C15.4355 9.79471 15.73 8.90428 15.73 7.81598C15.73 7.22236 15.6319 6.62874 15.4355 6.233C15.2392 5.83725 14.9447 5.54044 14.552 5.24363C14.1593 5.04576 13.7667 4.84789 13.2758 4.74895C12.785 4.65001 12.2941 4.65001 11.7051 4.65001H6.01128V11.0809H12.0978ZM12.3923 22.7554C12.9813 22.7554 13.5703 22.6564 14.0612 22.5585C14.552 22.4586 15.0429 22.2607 15.4355 21.9639C15.8282 21.6671 16.1227 21.3703 16.4172 20.8756C16.6136 20.3809 16.8099 19.7863 16.8099 19.0947C16.8099 17.7096 16.4172 16.7203 15.6319 16.0267C14.8465 15.4331 13.7667 15.1373 12.4904 15.1373H6.01128V22.7554H12.3923ZM31.339 22.6564C32.1243 23.4479 33.3023 23.8437 34.873 23.8437C35.9529 23.8437 36.9346 23.5469 37.72 23.0522C38.5053 22.4576 38.9962 21.865 39.1925 21.2703H44.0028C43.2174 23.6448 42.0394 25.3277 40.4687 26.415C38.898 27.4044 37.0328 27.999 34.7749 27.999C33.2042 27.999 31.8298 27.7012 30.5536 27.2065C29.2774 26.7118 28.2957 26.0203 27.4122 25.0309C26.5287 24.1405 25.8415 23.0522 25.4488 21.765C24.9579 20.4789 24.7616 19.0947 24.7616 17.5108C24.7616 16.0267 24.9579 14.6426 25.4488 13.3554C25.9396 12.0693 26.6268 10.9819 27.5104 9.99258C28.3939 9.10215 29.4737 8.31066 30.6518 7.81598C31.928 7.3213 33.2042 7.02449 34.7749 7.02449C36.4438 7.02449 37.9163 7.3213 39.1925 8.01385C40.4687 8.70641 41.4504 9.4979 42.2357 10.6851C43.0211 11.7734 43.6101 13.0586 44.0028 14.4447C44.1991 15.8298 44.2973 17.2149 44.1991 18.7979H29.9646C29.9646 20.3809 30.5536 21.865 31.339 22.6564ZM37.5236 12.2681C36.8364 11.5756 35.7566 11.1798 34.4804 11.1798C33.5968 11.1798 32.9097 11.3767 32.3206 11.6745C31.7316 11.9713 31.339 12.3661 30.9463 12.7628C30.5536 13.1595 30.3573 13.6532 30.2591 14.1479C30.1609 14.6426 30.0628 15.0373 30.0628 15.4341H38.898C38.7016 13.95 38.2108 12.9607 37.5236 12.2681ZM51.8563 0V10.2894H51.9545C52.6417 9.10215 53.5252 8.31066 54.6051 7.81598C55.6849 7.3213 56.6666 7.02449 57.7465 7.02449C59.219 7.02449 60.3971 7.22236 61.2806 7.6181C62.1641 8.01385 62.9495 8.60747 63.4403 9.30002C63.9312 9.99258 64.3238 10.883 64.5202 11.8724C64.7165 12.8617 64.8147 13.951 64.8147 15.2362V27.4054H59.4154V16.2256C59.4154 14.5437 59.1209 13.3564 58.63 12.5649C58.1392 11.7734 57.2556 11.3777 55.9794 11.3777C54.5069 11.3777 53.427 11.8724 52.838 12.6649C52.1508 13.5543 51.8563 15.0383 51.8563 17.0171V27.4054H46.457V0H51.8563ZM68.7415 10.4873C69.3305 9.59683 70.0177 9.00321 70.9012 8.40861C71.7847 7.91392 72.7664 7.51917 73.8463 7.32031C74.9261 7.12243 76.005 7.0235 77.0858 7.0235C78.0675 7.0235 79.0492 7.12243 80.1301 7.22137C81.1118 7.32031 82.0935 7.61613 82.8778 8.01286C83.7614 8.40762 84.3504 9.00222 84.9404 9.69478C85.4302 10.3883 85.7247 11.3777 85.7247 12.5649V22.9533C85.7247 23.8437 85.8229 24.7341 85.9211 25.5266C86.0202 26.3181 86.3128 27.0106 86.6083 27.4054H81.1108C80.9135 27.2075 80.8153 26.8118 80.7181 26.516C80.6199 26.2182 80.6199 25.8234 80.6199 25.5266C79.7364 26.416 78.7547 27.0106 77.5767 27.4054C76.3987 27.8011 75.2206 27.9001 74.0426 27.9001C73.0609 27.9001 72.2755 27.8011 71.392 27.5053C70.6067 27.3074 69.9195 26.9107 69.2323 26.416C68.6433 25.9213 68.1524 25.3277 67.7598 24.5372C67.4653 23.7447 67.2689 22.9533 67.2689 21.865C67.2689 20.7757 67.4652 19.7863 67.8579 19.0947C68.2506 18.4022 68.7415 17.8086 69.3305 17.3139C69.9195 16.9191 70.7048 16.5224 71.4902 16.3245C72.2756 16.1276 73.0609 15.9298 73.9444 15.8298L76.3005 15.533C77.0858 15.4341 77.773 15.3351 78.362 15.2362C78.9511 15.0383 79.4419 14.8405 79.8346 14.5437C80.2273 14.2468 80.3254 13.8511 80.3254 13.2575C80.3254 12.6639 80.2273 12.1692 80.0309 11.8724C79.8346 11.5756 79.5401 11.2788 79.2456 11.0809C78.9501 10.883 78.5584 10.7841 78.1657 10.6861C77.773 10.5862 77.2822 10.5862 76.7913 10.5862C75.7115 10.5862 74.9261 10.7841 74.3371 11.2788C73.7481 11.7734 73.3554 12.5649 73.2572 13.5543H67.8579C67.8579 12.3671 68.2506 11.2788 68.7415 10.4873ZM79.4409 18.2043C79.1474 18.3032 78.7547 18.4022 78.3611 18.5011C77.9684 18.601 77.5757 18.601 77.0849 18.699C76.6932 18.7979 76.2023 18.7979 75.8087 18.8969L74.6306 19.1937C74.238 19.2926 73.8453 19.4905 73.6489 19.6883C73.3544 19.8862 73.1581 20.183 72.9618 20.4798C72.6682 20.8756 72.6682 21.2713 72.6682 21.766C72.6682 22.2607 72.7664 22.6564 72.9627 22.9533C73.1591 23.2501 73.3554 23.5479 73.6499 23.7447C73.9444 23.9426 74.3371 24.0425 74.7298 24.1405C75.1225 24.2384 75.5142 24.2394 76.005 24.2394C77.0858 24.2394 77.8702 24.0425 78.4592 23.7447C79.0492 23.35 79.4409 22.9533 79.7364 22.4586C80.0309 21.9639 80.2273 21.4692 80.2273 20.9745C80.3254 20.4798 80.3254 20.0851 80.3254 19.7873V17.7096C80.0309 17.9075 79.7364 18.1064 79.4409 18.2043ZM93.8738 7.51917V10.2894H93.9719C94.6581 9.10215 95.5427 8.31066 96.6215 7.81598C97.7024 7.3213 98.8804 7.02449 99.9593 7.02449C101.432 7.02449 102.61 7.22236 103.493 7.6181C104.475 8.01385 105.163 8.60747 105.654 9.30002C106.145 9.99258 106.537 10.883 106.831 11.8724C107.027 12.8617 107.127 13.951 107.127 15.2362V27.4054H101.727V16.2256C101.727 14.5437 101.432 13.3564 100.941 12.5649C100.45 11.7734 99.5666 11.2788 98.1922 11.2788C96.7197 11.2788 95.6389 11.8724 94.9527 12.7628C94.2655 13.6532 93.971 15.1373 93.971 17.116V27.5043H88.5716V7.51917H93.8738ZM119.199 11.0809C118.317 11.0809 117.629 11.2788 117.041 11.6755C116.452 12.0702 115.961 12.5649 115.568 13.2585C115.176 13.8521 114.979 14.5446 114.782 15.3361C114.587 16.1286 114.587 16.8202 114.587 17.6127C114.587 18.3042 114.685 19.0967 114.782 19.7883C114.979 20.5808 115.175 21.1734 115.568 21.767C115.961 22.3616 116.354 22.8563 116.943 23.251C117.532 23.6468 118.218 23.8457 119.101 23.8457C120.379 23.8457 121.36 23.4499 122.145 22.7564C122.833 22.0648 123.324 21.0754 123.422 19.7883H128.625C128.233 22.4596 127.251 24.4383 125.58 25.8244C123.913 27.2085 121.753 27.9021 119.101 27.9021C117.629 27.9021 116.254 27.6052 115.076 27.1106C113.799 26.6159 112.818 25.9233 111.935 25.0329C111.052 24.1425 110.363 23.0542 109.872 21.8669C109.382 20.5808 109.186 19.2936 109.186 17.8095C109.186 16.2266 109.382 14.8415 109.872 13.5553C110.363 12.2691 110.953 11.0819 111.836 10.0925C112.719 9.10314 113.799 8.41059 114.978 7.81697C116.253 7.32229 117.628 7.02548 119.199 7.02548C120.378 7.02548 121.457 7.22335 122.536 7.52016C123.615 7.81697 124.598 8.31165 125.383 8.90428C126.267 9.49889 126.954 10.2894 127.445 11.2788C127.936 12.1692 128.231 13.3564 128.328 14.6426H123.027C122.834 12.2681 121.557 11.0809 119.199 11.0809ZM28.8847 1.87979H39.8797V4.55108H28.8847V1.87979ZM136.773 22.6564C137.559 23.4479 138.834 23.8437 140.307 23.8437C141.388 23.8437 142.369 23.5469 143.154 23.0522C143.94 22.4576 144.431 21.865 144.626 21.2703H149.339C148.553 23.6448 147.376 25.3277 145.804 26.415C144.233 27.4044 142.368 27.999 140.111 27.999C138.54 27.999 137.165 27.7012 135.888 27.2065C134.68 26.7525 133.601 26.0052 132.748 25.0309C131.864 24.1405 131.177 23.0522 130.784 21.765C130.294 20.4789 130.097 19.0947 130.097 17.5108C130.097 16.0267 130.294 14.6426 130.784 13.3554C131.257 12.1146 131.957 10.974 132.846 9.99258C133.73 9.10215 134.809 8.31066 135.987 7.81598C137.264 7.3213 138.638 7.02449 140.111 7.02449C141.778 7.02449 143.251 7.3213 144.43 8.01385C145.705 8.70641 146.687 9.4979 147.473 10.6851C148.259 11.7734 148.848 13.0586 149.24 14.4447C149.632 15.8288 149.731 17.3129 149.632 18.8969H135.397C135.397 20.3809 135.987 21.865 136.773 22.6564ZM143.056 12.2681C142.368 11.5756 141.288 11.1798 140.012 11.1798C139.129 11.1798 138.441 11.3767 137.852 11.6745C137.263 11.9713 136.772 12.3661 136.478 12.7628C136.185 13.1595 135.888 13.6532 135.791 14.1479C135.694 14.6426 135.596 15.0373 135.596 15.4341H144.431C144.135 13.95 143.645 12.9607 143.056 12.2681Z" fill="#CBD5E1"/>
</g>
<defs>
<clipPath id="clip0_258_620">
<rect width="149.692" height="28" fill="white"/>
</clipPath>
</defs>
</svg>
