<svg width="181" height="34" viewBox="0 0 181 34" fill="none" xmlns="http://www.w3.org/2000/svg">
<path d="M106.239 7.84613H94.4348V26.1538H106.239M150.833 7.84613H139.029V26.1538H150.833M146.899 17H139.029M102.304 17H94.4348M161.326 26.1538V7.84613L175.754 26.1538V7.84613M30.1667 21.8384L44.5942 31.3846M30.1667 21.8384V12.1615M30.1667 21.8384L44.5942 12.1615M44.5942 31.3846L59.0217 21.8384M44.5942 31.3846V21.8384M59.0217 21.8384V12.1615M59.0217 21.8384L44.5942 12.1615M59.0217 12.1615L44.5942 2.61536M59.0217 12.1615L44.5942 21.7077L30.1667 12.1615M44.5942 2.61536L30.1667 12.1615M44.5942 2.61536V12.1615M116.732 18.3077H124.601C127.487 18.3077 129.848 15.9538 129.848 13.0769C129.848 10.2 127.487 7.84613 124.601 7.84613H116.732V26.1538M20.9855 10.4615C19.2804 8.76151 17.0507 7.84613 14.4275 7.84613C9.18115 7.84613 5.24637 11.7692 5.24637 17C5.24637 22.2307 9.18115 26.1538 14.4275 26.1538C17.0507 26.1538 19.2804 25.1077 20.9855 23.5384M85.2536 17C85.2536 22.2307 81.3188 26.1538 76.0725 26.1538H69.5145V7.84613H76.0725C81.3188 7.84613 85.2536 11.7692 85.2536 17Z" stroke="#CBD5E1" stroke-width="4" stroke-linecap="round" stroke-linejoin="round"/>
</svg>
