<svg width="48" height="48" viewBox="0 0 48 48" fill="none" xmlns="http://www.w3.org/2000/svg"> <path d="M22.3521 1.37311C21.4804 0.276686 19.6901 0.521542 19.1448 1.81175C18.0738 4.34627 24.996 18.7095 21.9965 22.6594C18.9969 26.6092 3.30172 23.7984 1.14738 25.5108C0.0506482 26.3826 0.295244 28.1732 1.58556 28.7185C4.12017 29.7895 18.4849 22.8671 22.4351 25.8664C26.3852 28.8657 23.5741 44.56 25.2867 46.7141C26.1585 47.8108 27.9492 47.5662 28.4945 46.2759C29.5657 43.7415 22.6428 29.3777 25.6423 25.4278C28.6418 21.4779 44.3374 24.2886 46.4914 22.5764C47.5879 21.7048 47.343 19.9146 46.0527 19.3694C43.518 18.2984 29.1537 25.2201 25.2036 22.2208C21.2535 19.2214 24.0644 3.52697 22.3521 1.37311L22.3521 1.37311Z" fill="#F20036"></path></svg>