<svg width="196" height="25" viewBox="0 0 196 25" fill="none" xmlns="http://www.w3.org/2000/svg">
<path d="M21.5568 8.875H16.5795C16.4886 8.23106 16.303 7.65909 16.0227 7.15909C15.7424 6.65151 15.3826 6.2197 14.9432 5.86364C14.5038 5.50757 13.9962 5.23485 13.4205 5.04545C12.8523 4.85606 12.2348 4.76136 11.5682 4.76136C10.3636 4.76136 9.31439 5.06061 8.42045 5.65909C7.52652 6.25 6.83333 7.11364 6.34091 8.25C5.84849 9.37879 5.60227 10.75 5.60227 12.3636C5.60227 14.0227 5.84849 15.4167 6.34091 16.5455C6.84091 17.6742 7.53788 18.5265 8.43182 19.1023C9.32576 19.678 10.3598 19.9659 11.5341 19.9659C12.1932 19.9659 12.803 19.8788 13.3636 19.7045C13.9318 19.5303 14.4356 19.2765 14.875 18.9432C15.3144 18.6023 15.678 18.1894 15.9659 17.7045C16.2614 17.2197 16.4659 16.6667 16.5795 16.0455L21.5568 16.0682C21.428 17.1364 21.1061 18.1667 20.5909 19.1591C20.0833 20.1439 19.3977 21.0265 18.5341 21.8068C17.678 22.5795 16.6553 23.1932 15.4659 23.6477C14.2841 24.0947 12.947 24.3182 11.4545 24.3182C9.37879 24.3182 7.52273 23.8485 5.88636 22.9091C4.25758 21.9697 2.9697 20.6098 2.02273 18.8295C1.08333 17.0492 0.613636 14.8939 0.613636 12.3636C0.613636 9.82576 1.09091 7.66667 2.04545 5.88636C3 4.10606 4.29545 2.75 5.93182 1.81818C7.56818 0.878787 9.40909 0.40909 11.4545 0.40909C12.803 0.40909 14.053 0.598484 15.2045 0.977272C16.3636 1.35606 17.3902 1.90909 18.2841 2.63636C19.178 3.35606 19.9053 4.23864 20.4659 5.28409C21.0341 6.32954 21.3977 7.52651 21.5568 8.875ZM37.7102 7.42045C37.6193 6.50379 37.2292 5.79167 36.5398 5.28409C35.8504 4.77651 34.9148 4.52273 33.733 4.52273C32.9299 4.52273 32.2519 4.63636 31.6989 4.86364C31.1458 5.08333 30.7216 5.39015 30.4261 5.78409C30.1383 6.17803 29.9943 6.625 29.9943 7.125C29.9792 7.54167 30.0663 7.9053 30.2557 8.21591C30.4527 8.52652 30.7216 8.79545 31.0625 9.02273C31.4034 9.24242 31.7973 9.43561 32.2443 9.60227C32.6913 9.76136 33.1686 9.89773 33.6761 10.0114L35.767 10.5114C36.7822 10.7386 37.714 11.0417 38.5625 11.4205C39.411 11.7992 40.1458 12.2652 40.767 12.8182C41.3883 13.3712 41.8693 14.0227 42.2102 14.7727C42.5587 15.5227 42.7367 16.3826 42.7443 17.3523C42.7367 18.7765 42.3731 20.0114 41.6534 21.0568C40.9413 22.0947 39.911 22.9015 38.5625 23.4773C37.2216 24.0455 35.6042 24.3295 33.7102 24.3295C31.8314 24.3295 30.1951 24.0417 28.8011 23.4659C27.4148 22.8902 26.3314 22.0379 25.5511 20.9091C24.7784 19.7727 24.3731 18.3674 24.3352 16.6932H29.0966C29.1496 17.4735 29.3731 18.125 29.767 18.6477C30.1686 19.1629 30.7027 19.553 31.3693 19.8182C32.0436 20.0758 32.8049 20.2045 33.6534 20.2045C34.4867 20.2045 35.2102 20.0833 35.8239 19.8409C36.4451 19.5985 36.9261 19.2614 37.267 18.8295C37.608 18.3977 37.7784 17.9015 37.7784 17.3409C37.7784 16.8182 37.6231 16.3788 37.3125 16.0227C37.0095 15.6667 36.5625 15.3636 35.9716 15.1136C35.3883 14.8636 34.6723 14.6364 33.8239 14.4318L31.2898 13.7955C29.3277 13.3182 27.7784 12.572 26.642 11.5568C25.5057 10.5417 24.9413 9.17424 24.9489 7.45454C24.9413 6.04545 25.3163 4.81439 26.0739 3.76136C26.839 2.70833 27.8883 1.88636 29.2216 1.29545C30.5549 0.704545 32.0701 0.40909 33.767 0.40909C35.4943 0.40909 37.0019 0.704545 38.2898 1.29545C39.5852 1.88636 40.5928 2.70833 41.3125 3.76136C42.0322 4.81439 42.4034 6.03409 42.4261 7.42045H37.7102ZM58.679 7.42045C58.5881 6.50379 58.1979 5.79167 57.5085 5.28409C56.8191 4.77651 55.8835 4.52273 54.7017 4.52273C53.8987 4.52273 53.2206 4.63636 52.6676 4.86364C52.1146 5.08333 51.6903 5.39015 51.3949 5.78409C51.107 6.17803 50.9631 6.625 50.9631 7.125C50.9479 7.54167 51.035 7.9053 51.2244 8.21591C51.4214 8.52652 51.6903 8.79545 52.0312 9.02273C52.3722 9.24242 52.7661 9.43561 53.2131 9.60227C53.66 9.76136 54.1373 9.89773 54.6449 10.0114L56.7358 10.5114C57.7509 10.7386 58.6828 11.0417 59.5312 11.4205C60.3797 11.7992 61.1146 12.2652 61.7358 12.8182C62.357 13.3712 62.8381 14.0227 63.179 14.7727C63.5275 15.5227 63.7055 16.3826 63.7131 17.3523C63.7055 18.7765 63.3419 20.0114 62.6222 21.0568C61.91 22.0947 60.8797 22.9015 59.5312 23.4773C58.1903 24.0455 56.5729 24.3295 54.679 24.3295C52.8002 24.3295 51.1638 24.0417 49.7699 23.4659C48.3835 22.8902 47.3002 22.0379 46.5199 20.9091C45.7472 19.7727 45.3419 18.3674 45.304 16.6932H50.0653C50.1184 17.4735 50.3419 18.125 50.7358 18.6477C51.1373 19.1629 51.6714 19.553 52.3381 19.8182C53.0123 20.0758 53.7737 20.2045 54.6222 20.2045C55.4555 20.2045 56.179 20.0833 56.7926 19.8409C57.4138 19.5985 57.8949 19.2614 58.2358 18.8295C58.5767 18.3977 58.7472 17.9015 58.7472 17.3409C58.7472 16.8182 58.5919 16.3788 58.2812 16.0227C57.9782 15.6667 57.5313 15.3636 56.9403 15.1136C56.357 14.8636 55.6411 14.6364 54.7926 14.4318L52.2585 13.7955C50.2964 13.3182 48.7472 12.572 47.6108 11.5568C46.4744 10.5417 45.91 9.17424 45.9176 7.45454C45.91 6.04545 46.285 4.81439 47.0426 3.76136C47.8078 2.70833 48.857 1.88636 50.1903 1.29545C51.5237 0.704545 53.0388 0.40909 54.7358 0.40909C56.4631 0.40909 57.9706 0.704545 59.2585 1.29545C60.554 1.88636 61.5616 2.70833 62.2812 3.76136C63.0009 4.81439 63.3722 6.03409 63.3949 7.42045H58.679ZM77.8068 10.4432V14.2841H67.1932V10.4432H77.8068ZM80.1676 4.78409V0.727272H99.2812V4.78409H92.1562V24H87.2926V4.78409H80.1676ZM102.429 24V0.727272H111.611C113.368 0.727272 114.868 1.04167 116.111 1.67045C117.361 2.29167 118.312 3.17424 118.963 4.31818C119.622 5.45454 119.952 6.79167 119.952 8.32955C119.952 9.875 119.618 11.2045 118.952 12.3182C118.285 13.4242 117.319 14.2727 116.054 14.8636C114.796 15.4545 113.274 15.75 111.486 15.75H105.338V11.7955H110.69C111.63 11.7955 112.41 11.6667 113.031 11.4091C113.652 11.1515 114.115 10.7652 114.418 10.25C114.728 9.73485 114.884 9.0947 114.884 8.32955C114.884 7.55682 114.728 6.9053 114.418 6.375C114.115 5.8447 113.649 5.44318 113.02 5.17045C112.399 4.89015 111.615 4.75 110.668 4.75H107.349V24H102.429ZM114.997 13.4091L120.781 24H115.349L109.69 13.4091H114.997ZM128.349 0.727272V24H123.429V0.727272H128.349ZM152.932 8.875H147.955C147.864 8.23106 147.678 7.65909 147.398 7.15909C147.117 6.65151 146.758 6.2197 146.318 5.86364C145.879 5.50757 145.371 5.23485 144.795 5.04545C144.227 4.85606 143.61 4.76136 142.943 4.76136C141.739 4.76136 140.689 5.06061 139.795 5.65909C138.902 6.25 138.208 7.11364 137.716 8.25C137.223 9.37879 136.977 10.75 136.977 12.3636C136.977 14.0227 137.223 15.4167 137.716 16.5455C138.216 17.6742 138.913 18.5265 139.807 19.1023C140.701 19.678 141.735 19.9659 142.909 19.9659C143.568 19.9659 144.178 19.8788 144.739 19.7045C145.307 19.5303 145.811 19.2765 146.25 18.9432C146.689 18.6023 147.053 18.1894 147.341 17.7045C147.636 17.2197 147.841 16.6667 147.955 16.0455L152.932 16.0682C152.803 17.1364 152.481 18.1667 151.966 19.1591C151.458 20.1439 150.773 21.0265 149.909 21.8068C149.053 22.5795 148.03 23.1932 146.841 23.6477C145.659 24.0947 144.322 24.3182 142.83 24.3182C140.754 24.3182 138.898 23.8485 137.261 22.9091C135.633 21.9697 134.345 20.6098 133.398 18.8295C132.458 17.0492 131.989 14.8939 131.989 12.3636C131.989 9.82576 132.466 7.66667 133.42 5.88636C134.375 4.10606 135.67 2.75 137.307 1.81818C138.943 0.878787 140.784 0.40909 142.83 0.40909C144.178 0.40909 145.428 0.598484 146.58 0.977272C147.739 1.35606 148.765 1.90909 149.659 2.63636C150.553 3.35606 151.28 4.23864 151.841 5.28409C152.409 6.32954 152.773 7.52651 152.932 8.875ZM156.46 24V0.727272H161.381V10.9886H161.688L170.062 0.727272H175.96L167.324 11.1477L176.062 24H170.176L163.801 14.4318L161.381 17.3864V24H156.46ZM190.96 7.42045C190.869 6.50379 190.479 5.79167 189.79 5.28409C189.1 4.77651 188.165 4.52273 186.983 4.52273C186.18 4.52273 185.502 4.63636 184.949 4.86364C184.396 5.08333 183.972 5.39015 183.676 5.78409C183.388 6.17803 183.244 6.625 183.244 7.125C183.229 7.54167 183.316 7.9053 183.506 8.21591C183.703 8.52652 183.972 8.79545 184.312 9.02273C184.653 9.24242 185.047 9.43561 185.494 9.60227C185.941 9.76136 186.419 9.89773 186.926 10.0114L189.017 10.5114C190.032 10.7386 190.964 11.0417 191.812 11.4205C192.661 11.7992 193.396 12.2652 194.017 12.8182C194.638 13.3712 195.119 14.0227 195.46 14.7727C195.809 15.5227 195.987 16.3826 195.994 17.3523C195.987 18.7765 195.623 20.0114 194.903 21.0568C194.191 22.0947 193.161 22.9015 191.812 23.4773C190.472 24.0455 188.854 24.3295 186.96 24.3295C185.081 24.3295 183.445 24.0417 182.051 23.4659C180.665 22.8902 179.581 22.0379 178.801 20.9091C178.028 19.7727 177.623 18.3674 177.585 16.6932H182.347C182.4 17.4735 182.623 18.125 183.017 18.6477C183.419 19.1629 183.953 19.553 184.619 19.8182C185.294 20.0758 186.055 20.2045 186.903 20.2045C187.737 20.2045 188.46 20.0833 189.074 19.8409C189.695 19.5985 190.176 19.2614 190.517 18.8295C190.858 18.3977 191.028 17.9015 191.028 17.3409C191.028 16.8182 190.873 16.3788 190.562 16.0227C190.259 15.6667 189.813 15.3636 189.222 15.1136C188.638 14.8636 187.922 14.6364 187.074 14.4318L184.54 13.7955C182.578 13.3182 181.028 12.572 179.892 11.5568C178.756 10.5417 178.191 9.17424 178.199 7.45454C178.191 6.04545 178.566 4.81439 179.324 3.76136C180.089 2.70833 181.138 1.88636 182.472 1.29545C183.805 0.704545 185.32 0.40909 187.017 0.40909C188.744 0.40909 190.252 0.704545 191.54 1.29545C192.835 1.88636 193.843 2.70833 194.562 3.76136C195.282 4.81439 195.653 6.03409 195.676 7.42045H190.96Z" fill="#CBD5E1"/>
</svg>
