<svg width="184" height="28" viewBox="0 0 184 28" fill="none" xmlns="http://www.w3.org/2000/svg">
<path d="M18.1978 17.9643L9.0989 8.98215L18.1978 0H9.0989L0 8.98215L4.54945 13.5237L9.0989 17.9643L13.6484 22.4049L18.1978 17.9643Z" fill="#CBD5E1"/>
<path d="M24.6681 13.5237L20.1187 8.98218L15.5692 4.54156L11.1209 8.98218L20.1187 17.9643L11.0198 26.9465H20.1187L24.6681 22.5059L29.2176 17.9643L24.6681 13.5237Z" fill="#CBD5E1"/>
<path d="M40.5407 8.98217C39.2264 8.98217 38.1143 9.38586 37.3055 10.2942C36.4967 11.2025 36.0923 12.4136 36.0923 14.0283C36.0923 15.6431 36.4967 16.8542 37.2044 17.7625C38.0132 18.6708 39.0242 19.0745 40.4396 19.0745C41.3495 19.0745 42.2593 18.8726 43.3714 18.5699V19.8819C42.4615 20.1846 41.4506 20.3865 40.2374 20.3865C38.4176 20.3865 37.0022 19.8819 35.9912 18.7717C34.9802 17.6616 34.4747 16.0468 34.4747 14.0283C34.4747 12.7163 34.6769 11.6062 35.1824 10.6979C35.6879 9.78955 36.3956 8.98217 37.2044 8.47755C38.0132 7.97294 39.1253 7.67017 40.4396 7.67017C41.7539 7.67017 42.8659 7.87201 43.8769 8.37663L43.2703 9.5877C42.4615 9.28494 41.5517 8.98217 40.5407 8.98217Z" fill="#CBD5E1"/>
<path d="M53.178 16.9551C53.178 18.0652 52.7736 18.8726 51.9648 19.4781C51.156 20.0837 50.145 20.3864 48.7297 20.3864C47.2132 20.3864 46.1011 20.1846 45.2923 19.7809V18.368C45.7978 18.5698 46.4044 18.7717 46.9099 18.8726C47.4154 18.9735 48.1231 19.0744 48.7297 19.0744C49.7406 19.0744 50.4483 18.8726 50.8527 18.5698C51.3582 18.1661 51.5604 17.6615 51.5604 17.056C51.5604 16.6523 51.4593 16.2486 51.2571 16.0468C51.0549 15.744 50.7516 15.5421 50.3472 15.2394C49.9428 15.0375 49.3363 14.7348 48.5275 14.432C47.4154 14.0283 46.5055 13.5237 46.1011 12.9181C45.5956 12.3126 45.3934 11.6061 45.3934 10.6978C45.3934 9.78952 45.7978 8.98214 46.5055 8.3766C47.2132 7.77106 48.2242 7.56921 49.3363 7.56921C50.5494 7.56921 51.6615 7.77106 52.7736 8.27568L52.3692 9.48675C51.3582 9.08306 50.3472 8.88121 49.3363 8.88121C48.5275 8.88121 48.022 9.08306 47.5165 9.38583C47.1121 9.6886 46.9099 10.1932 46.9099 10.7988C46.9099 11.2024 47.011 11.6061 47.1121 11.808C47.3143 12.1108 47.5165 12.3126 47.9209 12.5144C48.3253 12.7163 48.8308 13.0191 49.6396 13.3218C50.9538 13.8264 51.8637 14.3311 52.3692 14.8357C52.9758 15.4412 53.178 16.1477 53.178 16.9551Z" fill="#CBD5E1"/>
<path d="M62.7824 16.9551C62.7824 18.0652 62.378 18.8726 61.5693 19.4781C60.7605 20.0837 59.7495 20.3864 58.3341 20.3864C56.8176 20.3864 55.7055 20.1846 54.8967 19.7809V18.368C55.4022 18.5698 56.0088 18.7717 56.5143 18.8726C57.0198 18.9735 57.7275 19.0744 58.3341 19.0744C59.3451 19.0744 60.0528 18.8726 60.4572 18.5698C60.9627 18.1661 61.1649 17.6615 61.1649 17.056C61.1649 16.6523 61.0638 16.2486 60.8616 16.0468C60.6594 15.744 60.3561 15.5421 59.9517 15.2394C59.5473 15.0375 58.9407 14.7348 58.1319 14.432C57.0198 14.0283 56.1099 13.5237 55.7055 12.9181C55.2 12.3126 54.9978 11.6061 54.9978 10.6978C54.9978 9.78952 55.4022 8.98214 56.1099 8.3766C56.8176 7.77106 57.8286 7.56921 58.9407 7.56921C60.1539 7.56921 61.266 7.77106 62.378 8.27568L61.9737 9.48675C60.9627 9.08306 59.9517 8.88121 58.9407 8.88121C58.1319 8.88121 57.6264 9.08306 57.1209 9.38583C56.7165 9.6886 56.5143 10.1932 56.5143 10.7988C56.5143 11.2024 56.6154 11.6061 56.7165 11.808C56.9187 12.1108 57.1209 12.3126 57.5253 12.5144C57.9297 12.7163 58.4352 13.0191 59.244 13.3218C60.5583 13.8264 61.4682 14.3311 61.9737 14.8357C62.4791 15.4412 62.7824 16.1477 62.7824 16.9551Z" fill="#CBD5E1"/>
<path d="M75.4198 13.8265C75.4198 15.8449 74.8132 17.4597 73.7011 18.5699C72.589 19.68 70.9714 20.2855 68.8483 20.2855H64.8044V7.87201H69.0505C71.0725 7.87201 72.589 8.37662 73.7011 9.38586C74.8132 10.3951 75.4198 11.9089 75.4198 13.8265ZM71.9824 13.9274C71.9824 12.8172 71.7802 11.9089 71.2747 11.4043C70.8703 10.8997 70.1626 10.5969 69.2527 10.5969H68.2417V17.5606H68.9494C69.9604 17.5606 70.6681 17.2579 71.1736 16.6523C71.7802 16.0468 71.9824 15.1385 71.9824 13.9274Z" fill="#CBD5E1"/>
<path d="M82.0923 20.4874C80.4747 20.4874 79.2615 20.0837 78.3516 19.1754C77.4417 18.368 77.0374 17.1569 77.0374 15.5421C77.0374 13.9274 77.4417 12.7163 78.2505 11.808C79.0593 10.8997 80.2725 10.496 81.789 10.496C83.2044 10.496 84.3165 10.8997 85.1253 11.6061C85.9341 12.3126 86.3385 13.4227 86.3385 14.8357V16.3495H80.3736C80.3736 16.8541 80.5758 17.2578 80.9802 17.6615C81.3846 17.9643 81.8901 18.1661 82.4967 18.1661C83.1033 18.1661 83.6088 18.0652 84.1143 17.9643C84.6198 17.8634 85.1253 17.6615 85.7319 17.3587V19.7809C85.2264 20.0837 84.7209 20.1846 84.1143 20.2855C83.5077 20.3864 82.9011 20.4874 82.0923 20.4874ZM81.8901 12.8172C81.4857 12.8172 81.1824 12.9181 80.8791 13.2209C80.5758 13.4227 80.4747 13.8264 80.3736 14.331H83.2044C83.2044 13.8264 83.1033 13.5237 82.8 13.2209C82.6989 12.9181 82.3956 12.8172 81.8901 12.8172Z" fill="#CBD5E1"/>
<path d="M95.6396 17.3587C95.6396 18.368 95.3363 19.1754 94.6286 19.68C93.9209 20.1846 92.9099 20.4874 91.5956 20.4874C90.8879 20.4874 90.2813 20.4874 89.7758 20.3864C89.2704 20.2855 88.6638 20.1846 88.1583 19.9827V17.3587C88.6638 17.5606 89.2704 17.7624 89.8769 17.9643C90.4835 18.0652 90.989 18.1661 91.4945 18.1661C92.2022 18.1661 92.6066 17.9643 92.6066 17.6615C92.6066 17.4597 92.5055 17.3587 92.3033 17.2578C92.1011 17.1569 91.4945 16.8541 90.5846 16.4504C89.6747 16.0467 89.0682 15.643 88.7649 15.2394C88.4616 14.7347 88.2594 14.2301 88.2594 13.5237C88.2594 12.6154 88.5627 11.9089 89.2704 11.4043C89.978 10.8997 90.8879 10.6978 92.2022 10.6978C92.8088 10.6978 93.4154 10.7987 94.022 10.8997C94.6286 11.0006 95.1341 11.2024 95.7407 11.5052L94.8308 13.6246C94.4264 13.4227 93.9209 13.2209 93.4154 13.12C92.9099 13.019 92.5055 12.9181 92.2022 12.9181C91.6967 12.9181 91.3934 13.019 91.3934 13.3218C91.3934 13.5237 91.4945 13.6246 91.6967 13.7255C91.8989 13.8264 92.4044 14.0283 93.3143 14.432C94.022 14.7347 94.5275 14.9366 94.8308 15.2394C95.1341 15.5421 95.4374 15.8449 95.5385 16.1477C95.5385 16.3495 95.6396 16.8541 95.6396 17.3587Z" fill="#CBD5E1"/>
<path d="M97.4594 8.27569C97.4594 7.77107 97.5604 7.36738 97.8637 7.16553C98.167 6.96369 98.5714 6.76184 99.178 6.76184C99.7846 6.76184 100.29 6.86276 100.492 7.16553C100.796 7.36738 100.897 7.77107 100.897 8.27569C100.897 9.28492 100.29 9.68861 99.0769 9.68861C97.9648 9.78953 97.4594 9.28492 97.4594 8.27569ZM100.796 20.2855H97.4594V10.6978H100.796V20.2855Z" fill="#CBD5E1"/>
<path d="M112.22 10.6978V12.3126L110.906 12.8172C111.108 13.12 111.209 13.5237 111.209 13.9274C111.209 14.9366 110.804 15.744 110.097 16.3495C109.389 16.955 108.277 17.1569 106.862 17.1569C106.457 17.1569 106.255 17.1569 106.053 17.056C105.952 17.1569 105.952 17.3587 105.952 17.4597C105.952 17.6615 106.053 17.7624 106.356 17.8634C106.659 17.9643 106.963 17.9643 107.367 17.9643H108.985C111.108 17.9643 112.22 18.8726 112.22 20.6892C112.22 21.9003 111.714 22.8086 110.703 23.4141C109.692 24.0197 108.277 24.4234 106.457 24.4234C105.143 24.4234 104.031 24.2215 103.323 23.7169C102.615 23.3132 102.211 22.6067 102.211 21.7994C102.211 20.6892 102.919 19.8818 104.334 19.579C104.031 19.4781 103.829 19.2763 103.525 18.9735C103.323 18.6707 103.222 18.4689 103.222 18.1661C103.222 17.8634 103.323 17.5606 103.424 17.3587C103.626 17.1569 103.93 16.8541 104.435 16.5514C103.93 16.3495 103.525 15.9458 103.222 15.5421C102.919 15.0375 102.818 14.5329 102.818 13.8264C102.818 12.8172 103.222 12.0098 103.93 11.4043C104.637 10.7987 105.648 10.496 106.963 10.496C107.165 10.496 107.468 10.496 107.873 10.5969C108.277 10.5969 108.58 10.6978 108.782 10.6978H112.22ZM104.941 21.4966C104.941 21.7994 105.042 22.0012 105.345 22.203C105.648 22.4049 106.053 22.4049 106.558 22.4049C107.367 22.4049 107.974 22.304 108.479 22.1021C108.985 21.9003 109.187 21.5975 109.187 21.2947C109.187 20.992 109.086 20.891 108.782 20.7901C108.479 20.6892 108.075 20.5883 107.468 20.5883H106.154C105.749 20.5883 105.547 20.6892 105.244 20.7901C105.042 20.992 104.941 21.1938 104.941 21.4966ZM105.952 13.8264C105.952 14.8357 106.255 15.3403 106.963 15.3403C107.266 15.3403 107.569 15.2394 107.67 14.9366C107.873 14.7347 107.974 14.331 107.974 13.8264C107.974 12.8172 107.67 12.3126 106.963 12.3126C106.356 12.3126 105.952 12.8172 105.952 13.8264Z" fill="#CBD5E1"/>
<path d="M119.701 20.2855V15.0375C119.701 14.432 119.6 13.9274 119.398 13.6246C119.196 13.3218 118.892 13.12 118.488 13.12C117.881 13.12 117.477 13.3218 117.275 13.8264C117.073 14.2301 116.87 15.0375 116.87 16.1477V20.3864H113.534V10.7987H116.062L116.466 12.0098H116.668C116.971 11.6061 117.376 11.2024 117.881 11.0006C118.387 10.7987 118.993 10.6978 119.6 10.6978C120.712 10.6978 121.521 11.0006 122.127 11.6061C122.734 12.2117 123.037 13.12 123.037 14.2301V20.4874H119.701V20.2855Z" fill="#CBD5E1"/>
<path d="M133.653 20.2855L132.136 16.3495H127.182L125.666 20.2855H124.251L129.204 7.87201H130.418L135.27 20.2855H133.653ZM131.631 15.0375L130.215 11.2025C130.013 10.6979 129.811 10.0923 129.609 9.38586C129.508 9.89047 129.305 10.496 129.103 11.2025L127.688 15.0375H131.631Z" fill="#CBD5E1"/>
<path d="M144.268 20.2856L142.549 14.8357C142.448 14.5329 142.246 13.7256 141.943 12.6154H141.842C141.64 13.6246 141.437 14.3311 141.235 14.9366L139.516 20.3865H137.899L135.371 11.1016H136.888C137.495 13.4228 137.899 15.2394 138.303 16.4505C138.607 17.6616 138.809 18.4689 138.809 18.8726H138.91C139.011 18.5699 139.112 18.1662 139.213 17.6616C139.314 17.1569 139.516 16.7533 139.618 16.4505L141.336 11.1016H142.853L144.47 16.4505C144.774 17.4597 144.976 18.2671 145.077 18.8726H145.178C145.178 18.6708 145.279 18.368 145.38 17.9643C145.481 17.5606 146.088 15.2394 147.099 11.1016H148.514L145.987 20.3865H144.268V20.2856Z" fill="#CBD5E1"/>
<path d="M155.895 20.2855L155.591 18.9735H155.49C154.985 19.5791 154.58 19.9828 154.075 20.1846C153.569 20.3865 153.064 20.4874 152.356 20.4874C151.446 20.4874 150.738 20.2855 150.233 19.7809C149.727 19.2763 149.424 18.6708 149.424 17.7625C149.424 15.8449 150.941 14.9366 153.974 14.8357L155.591 14.7348V14.1292C155.591 13.4228 155.389 12.8172 155.086 12.5145C154.782 12.2117 154.277 12.0098 153.569 12.0098C152.76 12.0098 151.952 12.2117 150.941 12.7163L150.536 11.6062C151.042 11.4043 151.446 11.2025 152.053 11.0006C152.558 10.8997 153.165 10.7988 153.67 10.7988C154.782 10.7988 155.591 11.0006 156.097 11.5052C156.602 12.0098 156.906 12.8172 156.906 13.8265V20.1846H155.895V20.2855ZM152.659 19.2763C153.569 19.2763 154.176 19.0745 154.681 18.5698C155.187 18.0652 155.389 17.4597 155.389 16.5514V15.744L153.974 15.8449C152.862 15.8449 152.053 16.0468 151.547 16.3495C151.042 16.6523 150.84 17.1569 150.84 17.7625C150.84 18.2671 151.042 18.6708 151.345 18.8726C151.749 19.1754 152.154 19.2763 152.659 19.2763Z" fill="#CBD5E1"/>
<path d="M164.084 10.7988C164.488 10.7988 164.892 10.7988 165.196 10.8997L164.993 12.2117C164.589 12.1108 164.286 12.1108 163.982 12.1108C163.275 12.1108 162.567 12.4135 162.062 13.0191C161.556 13.6246 161.253 14.432 161.253 15.3403V20.2855H159.837V11.0006H160.949L161.152 12.7163H161.253C161.556 12.1108 162.062 11.6062 162.466 11.3034C162.971 11.0006 163.477 10.7988 164.084 10.7988Z" fill="#CBD5E1"/>
<path d="M173.284 19.0745C172.576 19.9828 171.565 20.4874 170.251 20.4874C169.037 20.4874 168.127 20.0837 167.42 19.2763C166.712 18.4689 166.409 17.2579 166.409 15.744C166.409 14.2302 166.712 13.0191 167.42 12.2117C168.127 11.4043 169.037 10.8997 170.251 10.8997C171.464 10.8997 172.475 11.4043 173.182 12.3126H173.284L173.182 11.6062V11.0006V7.06464H174.598V20.2856H173.486L173.284 19.0745ZM170.453 19.2763C171.464 19.2763 172.07 18.9736 172.576 18.4689C172.98 17.9643 173.182 17.056 173.182 15.9459V15.6431C173.182 14.3311 172.98 13.4228 172.475 12.8173C172.07 12.2117 171.363 12.0099 170.352 12.0099C169.543 12.0099 168.936 12.3126 168.431 13.0191C168.026 13.6246 167.723 14.5329 167.723 15.744C167.723 16.9551 167.925 17.8634 168.33 18.4689C168.936 18.9736 169.543 19.2763 170.453 19.2763Z" fill="#CBD5E1"/>
<path d="M183.596 17.7625C183.596 18.6708 183.292 19.2763 182.585 19.7809C181.978 20.2855 181.068 20.4874 179.855 20.4874C178.642 20.4874 177.631 20.2855 176.923 19.8818V18.5698C177.327 18.7717 177.833 18.9735 178.338 19.0745C178.844 19.1754 179.349 19.2763 179.855 19.2763C180.563 19.2763 181.169 19.1754 181.574 18.9735C181.978 18.7717 182.18 18.368 182.18 17.8634C182.18 17.4597 181.978 17.1569 181.675 16.9551C181.371 16.6523 180.765 16.3495 179.855 16.0468C178.945 15.744 178.338 15.4412 178.035 15.2394C177.631 15.0375 177.429 14.7348 177.226 14.432C177.024 14.1292 176.923 13.7255 176.923 13.3218C176.923 12.6154 177.226 12.0098 177.833 11.5052C178.44 11.0006 179.248 10.7988 180.36 10.7988C181.371 10.7988 182.382 11.0006 183.292 11.4043L182.787 12.5145C181.877 12.1108 180.967 11.9089 180.259 11.9089C179.552 11.9089 179.046 12.0098 178.743 12.2117C178.44 12.4135 178.237 12.7163 178.237 13.12C178.237 13.3218 178.338 13.6246 178.44 13.7255C178.541 13.9274 178.743 14.0283 179.046 14.2302C179.349 14.432 179.855 14.6338 180.664 14.9366C181.776 15.3403 182.484 15.744 182.888 16.1477C183.393 16.6523 183.596 17.1569 183.596 17.7625Z" fill="#CBD5E1"/>
</svg>
