<svg width="114" height="25" viewBox="0 0 114 25" fill="none" xmlns="http://www.w3.org/2000/svg">
<path d="M8.27273 24H0.0227273V0.727272H8.34091C10.6818 0.727272 12.697 1.19318 14.3864 2.125C16.0758 3.04924 17.375 4.37879 18.2841 6.11364C19.2008 7.84848 19.6591 9.92424 19.6591 12.3409C19.6591 14.7652 19.2008 16.8485 18.2841 18.5909C17.375 20.3333 16.0682 21.6705 14.3636 22.6023C12.6667 23.5341 10.6364 24 8.27273 24ZM4.94318 19.7841H8.06818C9.52273 19.7841 10.7462 19.5265 11.7386 19.0114C12.7386 18.4886 13.4886 17.6818 13.9886 16.5909C14.4962 15.4924 14.75 14.0758 14.75 12.3409C14.75 10.6212 14.4962 9.21591 13.9886 8.125C13.4886 7.03409 12.7424 6.23106 11.75 5.71591C10.7576 5.20076 9.53409 4.94318 8.07955 4.94318H4.94318V19.7841ZM23.304 24V0.727272H38.9858V4.78409H28.2244V10.3295H38.179V14.3864H28.2244V19.9432H39.0312V24H23.304ZM47.1023 0.727272L52.7273 18.4091H52.9432L58.5795 0.727272H64.0341L56.0114 24H49.6705L41.6364 0.727272H47.1023ZM66.4801 24.2955C65.7301 24.2955 65.0862 24.0303 64.5483 23.5C64.018 22.9621 63.7528 22.3182 63.7528 21.5682C63.7528 20.8258 64.018 20.1894 64.5483 19.6591C65.0862 19.1288 65.7301 18.8636 66.4801 18.8636C67.2074 18.8636 67.8438 19.1288 68.3892 19.6591C68.9347 20.1894 69.2074 20.8258 69.2074 21.5682C69.2074 22.0682 69.0786 22.5265 68.821 22.9432C68.571 23.3523 68.2415 23.6818 67.8324 23.9318C67.4233 24.1742 66.9725 24.2955 66.4801 24.2955ZM71.2926 4.78409V0.727272H90.4062V4.78409H83.2812V24H78.4176V4.78409H71.2926ZM113.878 12.3636C113.878 14.9015 113.397 17.0606 112.435 18.8409C111.48 20.6212 110.177 21.9811 108.526 22.9205C106.882 23.8523 105.033 24.3182 102.98 24.3182C100.912 24.3182 99.0559 23.8485 97.4119 22.9091C95.768 21.9697 94.4688 20.6098 93.5142 18.8295C92.5597 17.0492 92.0824 14.8939 92.0824 12.3636C92.0824 9.82576 92.5597 7.66667 93.5142 5.88636C94.4688 4.10606 95.768 2.75 97.4119 1.81818C99.0559 0.878787 100.912 0.40909 102.98 0.40909C105.033 0.40909 106.882 0.878787 108.526 1.81818C110.177 2.75 111.48 4.10606 112.435 5.88636C113.397 7.66667 113.878 9.82576 113.878 12.3636ZM108.889 12.3636C108.889 10.7197 108.643 9.33333 108.151 8.20455C107.666 7.07576 106.98 6.2197 106.094 5.63636C105.207 5.05303 104.17 4.76136 102.98 4.76136C101.791 4.76136 100.753 5.05303 99.8665 5.63636C98.9801 6.2197 98.2907 7.07576 97.7983 8.20455C97.3134 9.33333 97.071 10.7197 97.071 12.3636C97.071 14.0076 97.3134 15.3939 97.7983 16.5227C98.2907 17.6515 98.9801 18.5076 99.8665 19.0909C100.753 19.6742 101.791 19.9659 102.98 19.9659C104.17 19.9659 105.207 19.6742 106.094 19.0909C106.98 18.5076 107.666 17.6515 108.151 16.5227C108.643 15.3939 108.889 14.0076 108.889 12.3636Z" fill="#CBD5E1"/>
</svg>
