<svg width="131" height="32" viewBox="0 0 131 32" fill="none" xmlns="http://www.w3.org/2000/svg">
<g clip-path="url(#clip0_258_618)">
<path d="M39.9777 12.7802C41.4743 12.7802 42.6875 11.5734 42.6875 10.0849C42.6875 8.5961 41.4743 7.3895 39.9777 7.3895C38.4811 7.3895 37.2679 8.5961 37.2679 10.0849C37.2679 11.5734 38.4811 12.7802 39.9777 12.7802ZM129.408 21.9894C128.995 21.7011 128.677 21.6534 128.413 22.2131C123.862 32.0153 116.192 27.1238 116.954 27.5543C118.655 26.7805 123.13 23.2122 122.453 18.2852C122.043 15.2742 119.444 13.9386 116.685 14.4168C111.87 15.2516 110.099 20.4163 111 24.9887C111.158 25.774 111.44 26.4216 111.722 27.056C106.28 31.4563 104.119 23.117 103.874 22.1204C103.865 22.0671 108.076 18.5765 109.247 10.2588C110.475 1.54137 107.678 -0.0459331 104.818 0.00359072C99.5266 0.0952733 98.0966 11.0898 100.018 20.253C99.8568 20.2946 99.108 20.7071 97.9048 20.7533C97.039 18.0442 93.3396 15.6696 92.3714 16.5847C89.9482 18.8737 92.9591 23.3489 95.0776 23.6998C93.805 31.4944 85.846 29.564 87.3276 19.7986C89.9193 15.0126 91.8905 7.89616 91.5388 3.60004C91.4142 2.07902 90.2833 0.041178 87.7257 0.142257C82.8065 0.335781 82.2717 11.3334 82.8484 19.1388C82.8198 18.9466 82.546 20.0871 80.5302 20.6543C80.0534 18.0224 75.7918 15.3806 74.7886 16.6507C72.9107 19.0278 76.1652 23.2663 77.7068 23.5619C76.4341 31.3562 68.4754 29.4258 69.957 19.6605C72.5488 14.8747 74.5197 7.75826 74.168 3.46213C74.0433 1.94086 72.9127 -0.0969807 70.3549 0.00384469C65.4357 0.197622 64.9009 11.1952 65.4776 19.0007C65.4487 18.8054 65.1685 19.9835 63.0705 20.5412C63.0002 17.1266 58.7231 15.5609 57.6956 16.6504C55.8644 18.5925 58.115 22.5773 60.197 23.5619C58.9243 31.3562 50.9657 29.4258 52.4472 19.6605C55.039 14.8747 57.0101 7.75826 56.6582 3.46213C56.5338 1.94086 55.4029 -0.0969807 52.8451 0.00384469C47.9262 0.197622 47.5303 11.7481 48.107 19.5533C46.4868 26.4564 41.0532 35.0771 41.7591 17.808C41.8288 16.5966 41.9049 16.1367 41.2976 15.6831C40.8425 15.3306 39.8076 15.5002 39.2419 15.5142C38.5544 15.5416 38.382 15.9416 38.23 16.5463C37.876 18.1077 37.8124 19.6214 37.7619 21.6866C37.7287 22.6527 37.6508 23.1035 37.2766 24.4209C36.903 25.7379 34.7712 28.1453 33.604 27.7428C31.9848 27.1891 32.516 22.6436 32.8194 19.5205C33.0723 17.0525 32.2627 15.9442 30.1883 15.5411C28.9739 15.2894 28.2361 15.328 26.9713 14.9316C25.7753 14.5567 25.5049 12.3071 22.9539 13.0568C21.5587 13.4672 22.4557 16.4069 22.1203 18.5857C20.4717 29.3034 17.0415 29.5978 15.4501 24.3914C22.6173 6.93591 17.5234 0.0543844 14.5417 0.0543844C11.436 0.0543844 7.88603 2.18162 9.3893 15.7923C8.65835 15.5802 8.4336 15.4659 7.63344 15.4659C3.10806 15.4659 0.0249023 19.1038 0.0249023 23.5914C0.0249023 28.079 3.10831 31.7171 7.63369 31.7171C10.3051 31.7171 12.1808 30.509 13.6013 28.64C14.5281 29.9599 15.6567 31.7374 17.7206 31.6574C23.8724 31.4192 25.6614 18.8709 25.8726 18.171C26.5303 18.2718 27.1524 18.4625 27.7598 18.5633C28.7716 18.7144 28.8452 19.1127 28.8222 20.1247C28.554 28.6591 30.1378 31.6473 33.7302 31.6473C35.7317 31.6473 37.5157 29.6917 38.7446 28.2934C39.6625 30.1773 41.1252 31.5896 43.0874 31.647C47.8421 31.7646 49.6626 24.2286 49.4966 25.2204C49.3664 25.9985 51.0392 31.6046 55.9342 31.6249C61.9975 31.6503 63.1246 25.0197 63.2589 23.9091C63.2758 23.6882 63.2832 23.711 63.2589 23.9091L63.2543 23.9764C65.1793 23.6204 66.1725 22.5941 66.1725 22.5941C66.1725 22.5941 67.7182 31.728 73.4437 31.6252C79.3893 31.518 80.5105 25.5244 80.6576 24.3556C80.677 24.0783 80.6885 24.1108 80.6576 24.3556C80.6568 24.367 80.6561 24.3784 80.6553 24.3899C82.9419 23.5627 83.5434 22.7325 83.5434 22.7325C83.5434 22.7325 84.7718 31.6849 90.8145 31.7631C96.1993 31.8332 98.195 26.3498 98.2067 24.0546C99.1149 24.0643 100.795 23.5188 100.756 23.4878C100.756 23.4878 102.728 31.3151 108.236 31.7171C110.822 31.9058 112.762 30.27 113.868 29.5238C116.467 31.6168 125.121 34.2901 130.586 25.0774C131.357 23.7552 129.699 22.1933 129.408 21.9894ZM7.41533 28.6781C4.77503 28.6781 3.08201 26.2505 3.08201 23.6328C3.08201 21.0154 4.6361 18.5877 7.27639 18.5877C8.4645 18.5877 9.12547 18.7177 10.0508 19.518C10.2186 20.1755 10.6941 21.6922 10.9255 22.381C11.2356 23.3026 11.6044 24.0871 11.9762 24.941C11.445 27.131 9.70343 28.6781 7.41533 28.6781ZM13.8493 19.595C13.7395 19.421 13.7625 19.5279 13.6396 19.3636C13.1556 18.0544 12.2229 15.1322 12.1149 11.8131C11.9928 8.05845 12.6221 3.65743 14.4773 3.65743C15.7344 3.65743 17.0704 12.5768 13.849 19.595H13.8493ZM51.0252 15.6828C50.7274 13.4548 50.7118 3.52207 53.1097 3.79559C54.4337 4.32892 52.2702 13.7016 51.0252 15.6828ZM68.5349 15.6828C68.2371 13.4548 68.2216 3.52207 70.6195 3.79559C71.9435 4.32892 69.78 13.7016 68.5349 15.6828ZM85.9058 15.8212C85.6077 13.5929 85.5924 3.66023 87.9901 3.93375C89.314 4.46708 87.1506 13.84 85.9058 15.8212ZM105.083 3.21426C107.275 2.98823 107.185 12.5085 102.784 18.5189C102.217 16.3464 101.347 3.96016 105.083 3.214V3.21426ZM114.298 23.6998C113.594 20.1628 115.413 17.8398 117.289 17.5851C117.944 17.4809 118.894 17.9033 119.084 18.6929C119.395 20.1809 119.039 22.3881 114.841 25.1886C114.847 25.2125 114.455 24.4877 114.298 23.6998H114.298Z" fill="#CBD5E1"/>
</g>
<defs>
<clipPath id="clip0_258_618">
<rect width="130.813" height="32" fill="white"/>
</clipPath>
</defs>
</svg>
