<svg width="87" height="31" viewBox="0 0 87 31" fill="none" xmlns="http://www.w3.org/2000/svg">
<g clip-path="url(#clip0_3_2)">
<path d="M16.8323 19.1167H9.48786C9.2989 19.1167 9.14526 19.2558 9.14526 19.428V22.6766C9.14526 22.8489 9.2989 22.9872 9.48786 22.9872H12.3538V27.0254C12.3538 27.0254 11.7098 27.2198 9.93287 27.2198C7.83423 27.2198 4.90337 26.5242 4.90337 20.6946C4.90337 14.8625 7.95467 14.0951 10.8206 14.0951C13.3015 14.0951 14.3688 14.4893 15.0496 14.6804C15.2631 14.7411 15.4578 14.5473 15.4578 14.3744L16.2785 11.2355C16.2785 11.1552 16.2468 11.0586 16.1487 10.9934C15.8717 10.8172 14.187 9.96429 9.93281 9.96429C5.0288 9.96429 0 11.8516 0 20.925C0 29.9972 5.75718 31.3481 10.6093 31.3481C14.6255 31.3481 17.0659 29.7963 17.0659 29.7963C17.1655 29.7466 17.1756 29.62 17.1756 29.5626V19.428C17.1741 19.2571 17.0198 19.1167 16.8323 19.1167ZM53.9744 10.7396H49.8421C49.6517 10.7396 49.4988 10.8786 49.4988 11.0508V18.2815H43.0544V11.0508C43.0544 10.8786 42.9001 10.7396 42.714 10.7396H38.5773C38.3912 10.7396 38.2398 10.8786 38.2398 11.0508V30.6289C38.2398 30.8025 38.3927 30.9409 38.5773 30.9409H42.714C42.9029 30.9409 43.0544 30.8012 43.0544 30.6289V22.2563H49.4988L49.4844 30.6302C49.4844 30.8038 49.6373 30.9408 49.8219 30.9408H53.96C54.1504 30.9408 54.299 30.8012 54.299 30.6302L54.3134 11.0508C54.3163 10.8786 54.1619 10.7396 53.9744 10.7396ZM21.7724 11.1833C20.2998 11.1833 19.1055 12.2738 19.1055 13.6194C19.1055 14.9656 20.2998 16.0561 21.7724 16.0561C23.245 16.0561 24.4378 14.9657 24.4378 13.6194C24.4379 12.2738 23.245 11.1833 21.7724 11.1833ZM24.145 17.4631C24.145 17.2921 23.9922 17.1505 23.8061 17.1505H19.6824C19.4891 17.1505 19.3247 17.3267 19.3247 17.4996C19.3247 17.4996 19.3247 28.3749 19.3247 30.4475C19.3247 30.826 19.5858 30.9408 19.9247 30.9408C19.9247 30.9408 21.6815 30.9408 23.6388 30.9408C24.0441 30.9408 24.1508 30.7607 24.1508 30.4396C24.1479 29.7453 24.1479 27.0279 24.1479 26.5007C24.145 25.9995 24.145 17.4631 24.145 17.4631ZM69.9803 17.1799H65.8782C65.6907 17.1799 65.5407 17.3202 65.5407 17.4925V27.0907C65.5407 27.0907 64.4978 27.785 63.0151 27.785C61.5367 27.785 61.1415 27.1781 61.1415 25.8638C61.1415 24.5534 61.1415 17.4912 61.1415 17.4912C61.1415 17.3189 60.9871 17.1786 60.8025 17.1786H56.6413C56.4509 17.1786 56.3009 17.3189 56.3009 17.4912C56.3009 17.4912 56.3009 22.6035 56.3009 26.4968C56.3009 30.3901 58.6996 31.3442 61.9953 31.3442C64.7012 31.3442 66.8863 29.9907 66.8863 29.9907C66.8863 29.9907 66.9888 30.7007 67.0407 30.7856C67.084 30.8704 67.2066 30.9553 67.3407 30.9553H69.9773C70.1649 30.9553 70.3177 30.8156 70.3177 30.6433L70.3293 17.4912C70.3207 17.3202 70.1677 17.1799 69.9803 17.1799ZM81.2162 16.7387C78.8854 16.7387 77.3002 17.6797 77.3002 17.6797V11.0508C77.3002 10.8786 77.1459 10.7396 76.9612 10.7396H72.8116C72.6255 10.7396 72.4726 10.8786 72.4726 11.0508L72.461 30.6303C72.461 30.8039 72.6154 30.9409 72.8029 30.9409C72.8029 30.9409 75.689 30.9409 75.6919 30.9409C75.8203 30.9409 75.9169 30.8808 75.9905 30.7764C76.0627 30.6707 76.165 29.8732 76.165 29.8732C76.165 29.8732 77.8569 31.3272 81.069 31.3272C84.8393 31.3272 87 29.5966 87 23.5589C87.0001 17.529 83.547 16.7387 81.2162 16.7387ZM79.5979 27.7719C78.1757 27.7328 77.2122 27.1481 77.2122 27.1481V20.9459C77.2122 20.9459 78.1656 20.4167 79.3339 20.3234C80.8123 20.2046 82.2403 20.6079 82.2403 23.799C82.233 27.1611 81.5898 27.8254 79.5979 27.7719ZM36.0907 27.7014C35.9089 27.7014 35.4445 27.7667 34.9685 27.7667C33.4483 27.7667 32.929 27.1258 32.929 26.2971C32.929 25.4644 32.929 20.7899 32.929 20.7899H36.033C36.2234 20.7899 36.3734 20.6509 36.3734 20.4774V17.4605C36.3762 17.2869 36.2234 17.1479 36.033 17.1479H32.929L32.9246 13.4406C32.9246 13.3003 32.8425 13.2305 32.6636 13.2305H28.4389C28.2759 13.2305 28.1851 13.2964 28.1851 13.4393V17.2706C28.1851 17.2706 26.0663 17.7333 25.9234 17.7718C25.7821 17.8083 25.6783 17.9284 25.6783 18.07V20.4787C25.6783 20.6509 25.8326 20.7913 26.0187 20.7913H28.1851C28.1851 20.7913 28.1851 23.3083 28.1851 26.5842C28.1851 30.886 31.5213 31.3089 33.7713 31.3089C34.7983 31.3089 36.0272 31.0061 36.2334 30.9409C36.3575 30.9017 36.4281 30.7855 36.4281 30.6616L36.4296 28.0134C36.4296 27.8398 36.2695 27.6988 36.0907 27.7014Z" fill="#CBD5E1"/>
</g>
<defs>
<clipPath id="clip0_3_2">
<rect width="87" height="31" fill="white"/>
</clipPath>
</defs>
</svg>
