<svg width="178" height="24" viewBox="0 0 178 24" fill="none" xmlns="http://www.w3.org/2000/svg">
<g clip-path="url(#clip0_3_20)">
<path d="M105.798 0.000366211C102.121 0.000366211 98.5262 3.29301 98.1128 8.05054V0.392574H92.8318V23.4833H98.1775V12.3065C98.1775 9.17558 100.422 4.75908 105.798 4.75908V0.000366211Z" fill="#CBD5E1"/>
<path d="M161.872 19.7867V3.96678H164.968C169.097 3.96678 172.452 6.51838 172.452 11.7492C172.452 16.9799 169.097 19.7867 164.968 19.7867H161.872ZM156.581 23.4866H165.614C171.162 23.4866 178 19.9143 178 11.7492C178 3.71162 171.162 0.394531 165.614 0.394531H156.581V23.4866Z" fill="#CBD5E1"/>
<path d="M136.339 12.0046C136.339 7.79447 138.533 4.34981 142.145 4.34981C145.629 4.34981 147.564 7.79447 147.564 12.0046C147.564 16.2148 145.629 19.6594 142.145 19.6594C138.533 19.6594 136.339 16.2148 136.339 12.0046ZM130.92 12.2597C130.92 19.1491 134.532 23.9972 140.21 23.9972C144.339 23.9972 146.79 21.318 148.081 16.9802V23.4869H153.37V0.394825H148.081V6.51867C146.92 2.4361 144.468 0.012085 140.597 0.012085C134.79 0.012085 130.92 5.24287 130.92 12.2597Z" fill="#CBD5E1"/>
<path d="M10.4514 23.9972C3.87089 23.9972 0 18.7664 0 12.2597C0 5.49803 4.25799 0.012085 12.3869 0.012085C20.7738 0.012085 23.6125 5.62561 23.7415 8.8151H17.6771C17.548 7.02899 15.9997 4.34981 12.2578 4.34981C8.2579 4.34981 5.67732 7.79447 5.67732 12.0046C5.67732 16.2148 8.2579 19.6594 12.2578 19.6594C15.8706 19.6594 17.419 16.8527 18.0642 14.0459H12.2578V11.7494H24.4415V23.4869H19.0964V16.0872C18.7093 18.7664 17.0319 23.9972 10.4514 23.9972Z" fill="#CBD5E1"/>
<path d="M35.2789 23.9969C30.2467 23.9969 27.15 20.6798 27.15 14.0456V0.394531H32.5692V14.0456C32.5692 17.4902 34.2466 19.1488 37.0853 19.1488C42.6336 19.1488 44.6981 12.387 44.6981 7.6666V0.394531H50.1173V23.4866H44.827V14.9386C43.7948 19.6591 40.9562 23.9969 35.2789 23.9969Z" fill="#CBD5E1"/>
<path d="M82.5014 0C77.8777 0 74.961 4.41617 74.009 8.49944C73.8462 3.02735 71.1247 0 66.7701 0C63.0079 0 59.5174 3.31739 58.6109 8.56552V0.392818H53.3281V23.4854H58.6787V15.2068C58.6787 13.1544 59.544 4.73196 64.9303 4.73196C68.4195 4.73196 68.7832 7.84394 68.7832 12.0978V23.4854H74.1313V15.2068C74.1313 13.1544 75.0325 4.73196 80.4187 4.73196C83.9051 4.73196 84.2652 7.84394 84.2652 12.0978V23.4854H89.6206V9.82624C89.6448 3.2734 87.3049 0 82.5014 0Z" fill="#CBD5E1"/>
<path d="M117.278 0C110.351 0 105.658 5.37022 105.658 11.9986C105.658 19.3021 110.121 23.997 117.278 23.997C124.204 23.997 128.981 18.627 128.981 11.9986C128.981 4.69511 124.431 0 117.278 0ZM117.278 19.9096C113.245 19.9096 110.634 16.5341 110.634 11.9986C110.634 7.46306 113.254 4.08743 117.278 4.08743C121.301 4.08743 123.817 7.46306 123.817 11.9986C123.817 16.5341 121.298 19.9096 117.278 19.9096Z" fill="#CBD5E1"/>
</g>
<defs>
<clipPath id="clip0_3_20">
<rect width="178" height="24" fill="white"/>
</clipPath>
</defs>
</svg>
