<svg width="112" height="37" viewBox="0 0 112 37" fill="none" xmlns="http://www.w3.org/2000/svg">
<path fill-rule="evenodd" clip-rule="evenodd" d="M33.917 6.93528C33.1989 7.43751 32.7455 7.70218 32.0551 7.86326C32.1163 6.93095 32.381 5.76379 33.002 4.43719L33.6181 3.1198L32.394 3.90134C32.0122 4.14486 31.1927 4.47352 30.3982 4.79135C30.0017 4.95026 29.6079 5.11079 29.2332 5.27187C26.4704 1.94994 22.1804 0.0793457 16.7459 0.0793457C9.47727 0.0793457 4.03472 3.80371 1.84413 9.7908C1.61906 9.86076 1.49214 9.90089 1.48347 9.90523C1.36089 9.94591 1.26327 10.0349 1.20632 10.1493C-0.812874 14.2674 0.439429 16.7189 0.494208 16.8203C0.564172 16.9515 0.687287 17.0302 0.820707 17.0578C1.21663 28.0173 7.94565 36.4683 16.4894 36.4683C25.6059 36.4683 32.0806 28.814 32.6565 17.6637C32.669 17.6637 32.6799 17.6745 32.6923 17.6745C32.7645 17.6745 32.8388 17.6571 32.9066 17.6235C33.0487 17.5536 33.1457 17.4201 33.1691 17.2634C33.4468 15.35 33.2558 13.8861 32.9635 12.8182C33.8259 11.4775 34.1567 9.6129 34.3726 8.36928C34.4447 7.95437 34.5081 7.59588 34.5673 7.40334L34.9339 6.22317L33.917 6.93528Z" fill="#CBD5E1"/>
<path fill-rule="evenodd" clip-rule="evenodd" d="M29.82 21.8691C27.5399 30.6678 23.354 25.6043 17.227 25.6043C11.1 25.6043 5.79304 31.4683 3.79499 21.8691C2.37781 15.062 10.6802 16.3566 16.8072 16.3566C22.9321 16.3566 31.5062 15.3543 29.82 21.8691Z" fill="white"/>
<path fill-rule="evenodd" clip-rule="evenodd" d="M11.1699 22.4114C11.1699 23.3052 10.4454 22.5324 9.55101 22.5324C8.65721 22.5324 7.93262 23.3052 7.93262 22.4114C7.93262 21.5171 8.65721 20.793 9.55101 20.793C10.4454 20.793 11.1699 21.5171 11.1699 22.4114Z" fill="#CBD5E1"/>
<path fill-rule="evenodd" clip-rule="evenodd" d="M25.5614 22.4114C25.5614 23.3052 24.8368 22.5324 23.943 22.5324C23.0487 22.5324 22.3241 23.3052 22.3241 22.4114C22.3241 21.5171 23.0487 20.793 23.943 20.793C24.8368 20.793 25.5614 21.5171 25.5614 22.4114Z" fill="#CBD5E1"/>
<path fill-rule="evenodd" clip-rule="evenodd" d="M28.0574 6.35061C28.9154 5.70412 31.7118 4.83797 32.6186 4.25928C31.9488 5.68947 31.6695 6.94557 31.6206 7.95219C31.5995 7.95436 31.5865 7.96032 31.5653 7.96249C31.4427 7.97985 31.3175 8.00263 31.1949 8.02595V8.0368C31.1417 8.04764 31.0886 8.06446 31.036 8.07476C31.0338 8.07096 31.0316 8.06663 31.0295 8.06012C30.076 8.26784 29.1247 8.65129 28.3177 9.18714C27.6967 8.98158 27.0486 8.81616 26.4005 8.64912C26.6228 7.78243 27.2308 6.97106 28.0574 6.35061Z" fill="white"/>
<path fill-rule="evenodd" clip-rule="evenodd" d="M32.7943 12.2678C32.4852 11.3908 32.1375 10.8907 32.0675 10.7953C32.0654 10.7931 32.0654 10.7909 32.0632 10.7909C32.061 10.7887 32.0589 10.7844 32.0572 10.7828C32.0507 10.7741 32.0421 10.7719 32.0355 10.7654C32.0355 10.7633 32.0339 10.7595 32.0339 10.7595C31.9932 10.7144 31.9466 10.6765 31.894 10.651C30.9237 10.1661 29.9046 9.74254 28.8454 9.3694C29.7072 8.86121 30.697 8.51573 31.625 8.38231C32.7308 8.22123 33.2434 7.92239 34.1605 7.28241C33.9235 8.04551 33.7456 10.5306 32.7943 12.2678Z" fill="white"/>
<path fill-rule="evenodd" clip-rule="evenodd" d="M32.6901 17.1956C32.6901 17.1956 18.5042 9.32057 0.916141 16.5957C0.916141 16.5957 -0.298197 14.3059 1.63856 10.3586C1.63856 10.3586 18.7353 4.6026 31.6797 11.0789C31.6797 11.0789 33.2835 13.1171 32.6901 17.1956Z" fill="white"/>
<path d="M47.9457 6.99512H49.9857V29.0751H47.9457V6.99512ZM70.1157 13.1451V29.0751H68.1057V26.3451C66.2857 28.5251 64.2057 29.6151 61.8657 29.6151C59.5257 29.6151 57.5507 28.7801 55.9407 27.1101C54.3307 25.4401 53.5257 23.4501 53.5257 21.1401C53.5257 18.8301 54.3357 16.8501 55.9557 15.2001C57.5757 13.5501 59.5157 12.7251 61.7757 12.7251C64.3757 12.7251 66.4857 13.8351 68.1057 16.0551V13.1451H70.1157ZM68.2257 21.1851C68.2257 19.3651 67.6157 17.8301 66.3957 16.5801C65.1757 15.3301 63.6807 14.7051 61.9107 14.7051C60.1407 14.7051 58.6457 15.3501 57.4257 16.6401C56.2057 17.9301 55.5957 19.4551 55.5957 21.2151C55.5957 22.9751 56.2157 24.5001 57.4557 25.7901C58.6957 27.0801 60.1807 27.7251 61.9107 27.7251C63.6407 27.7251 65.1257 27.1051 66.3657 25.8651C67.6057 24.6251 68.2257 23.0651 68.2257 21.1851ZM74.7657 13.1451H76.8057V16.0551C78.4257 13.8351 80.5357 12.7251 83.1357 12.7251C85.3757 12.7251 87.3057 13.5501 88.9257 15.2001C90.5457 16.8501 91.3557 18.8351 91.3557 21.1551C91.3557 23.4751 90.5557 25.4651 88.9557 27.1251C87.3557 28.7851 85.4357 29.6151 83.1957 29.6151C80.7557 29.6151 78.6257 28.5251 76.8057 26.3451V34.8951H74.7657V13.1451ZM89.3157 21.1851C89.3157 19.4051 88.7007 17.8801 87.4707 16.6101C86.2407 15.3401 84.7357 14.7051 82.9557 14.7051C81.1757 14.7051 79.6807 15.3301 78.4707 16.5801C77.2607 17.8301 76.6557 19.3751 76.6557 21.2151C76.6557 23.0551 77.2757 24.6001 78.5157 25.8501C79.7557 27.1001 81.2407 27.7251 82.9707 27.7251C84.7007 27.7251 86.1907 27.0901 87.4407 25.8201C88.6907 24.5501 89.3157 23.0051 89.3157 21.1851ZM111.066 13.1451V29.0751H109.056V26.3451C107.236 28.5251 105.156 29.6151 102.816 29.6151C100.476 29.6151 98.5007 28.7801 96.8907 27.1101C95.2807 25.4401 94.4757 23.4501 94.4757 21.1401C94.4757 18.8301 95.2857 16.8501 96.9057 15.2001C98.5257 13.5501 100.466 12.7251 102.726 12.7251C105.326 12.7251 107.436 13.8351 109.056 16.0551V13.1451H111.066ZM109.176 21.1851C109.176 19.3651 108.566 17.8301 107.346 16.5801C106.126 15.3301 104.631 14.7051 102.861 14.7051C101.091 14.7051 99.5957 15.3501 98.3757 16.6401C97.1557 17.9301 96.5457 19.4551 96.5457 21.2151C96.5457 22.9751 97.1657 24.5001 98.4057 25.7901C99.6457 27.0801 101.131 27.7251 102.861 27.7251C104.591 27.7251 106.076 27.1051 107.316 25.8651C108.556 24.6251 109.176 23.0651 109.176 21.1851Z" fill="#CBD5E1"/>
</svg>
