<svg width="233" height="23" viewBox="0 0 233 23" fill="none" xmlns="http://www.w3.org/2000/svg">
<path d="M0.833097 22V0.90909H9.15412C10.7538 0.90909 12.1166 1.21461 13.2425 1.82564C14.3685 2.42981 15.2267 3.27083 15.8171 4.34872C16.4144 5.41974 16.7131 6.65554 16.7131 8.05611C16.7131 9.45668 16.411 10.6925 15.8068 11.7635C15.2027 12.8345 14.3273 13.6687 13.1808 14.266C12.0411 14.8633 10.6611 15.1619 9.04084 15.1619H3.73722V11.5884H8.31996C9.17815 11.5884 9.8853 11.4408 10.4414 11.1456C11.0044 10.8435 11.4232 10.4281 11.6978 9.8995C11.9793 9.36399 12.12 8.74953 12.12 8.05611C12.12 7.35582 11.9793 6.74479 11.6978 6.22301C11.4232 5.69436 11.0044 5.28587 10.4414 4.99751C9.87843 4.7023 9.16442 4.55469 8.29936 4.55469H5.29226V22H0.833097ZM19.6095 22V0.90909H27.9305C29.5233 0.90909 30.8827 1.19401 32.0086 1.76385C33.1414 2.32682 34.003 3.12666 34.5935 4.16335C35.1908 5.19318 35.4894 6.40495 35.4894 7.79865C35.4894 9.19922 35.1874 10.4041 34.5832 11.4134C33.979 12.4157 33.1037 13.1847 31.9571 13.7202C30.8174 14.2557 29.4375 14.5234 27.8172 14.5234H22.2458V10.9396H27.0963C27.9477 10.9396 28.6548 10.8229 29.2178 10.5895C29.7807 10.3561 30.1995 10.0059 30.4742 9.53906C30.7557 9.07221 30.8964 8.49207 30.8964 7.79865C30.8964 7.09837 30.7557 6.50793 30.4742 6.02734C30.1995 5.54676 29.7773 5.18288 29.2075 4.93572C28.6445 4.6817 27.9339 4.55469 27.0757 4.55469H24.0686V22H19.6095ZM30.9994 12.402L36.2412 22H31.3186L26.1901 12.402H30.9994ZM58.0221 11.4545C58.0221 13.7545 57.5861 15.7112 56.7142 17.3246C55.8492 18.938 54.6683 20.1703 53.1716 21.0217C51.6818 21.8661 50.0066 22.2884 48.146 22.2884C46.2718 22.2884 44.5897 21.8627 43.0999 21.0114C41.6101 20.16 40.4326 18.9277 39.5676 17.3143C38.7025 15.7009 38.27 13.7476 38.27 11.4545C38.27 9.15459 38.7025 7.19792 39.5676 5.58452C40.4326 3.97112 41.6101 2.74219 43.0999 1.89773C44.5897 1.0464 46.2718 0.620738 48.146 0.620738C50.0066 0.620738 51.6818 1.0464 53.1716 1.89773C54.6683 2.74219 55.8492 3.97112 56.7142 5.58452C57.5861 7.19792 58.0221 9.15459 58.0221 11.4545ZM53.5012 11.4545C53.5012 9.96473 53.278 8.70833 52.8318 7.68537C52.3924 6.66241 51.771 5.8866 50.9678 5.35795C50.1645 4.82931 49.2239 4.56499 48.146 4.56499C47.0682 4.56499 46.1276 4.82931 45.3243 5.35795C44.521 5.8866 43.8963 6.66241 43.45 7.68537C43.0106 8.70833 42.7909 9.96473 42.7909 11.4545C42.7909 12.9444 43.0106 14.2008 43.45 15.2237C43.8963 16.2467 44.521 17.0225 45.3243 17.5511C46.1276 18.0798 47.0682 18.3441 48.146 18.3441C49.2239 18.3441 50.1645 18.0798 50.9678 17.5511C51.771 17.0225 52.3924 16.2467 52.8318 15.2237C53.278 14.2008 53.5012 12.9444 53.5012 11.4545ZM68.8018 22H61.3253V0.90909H68.8636C70.9851 0.90909 72.8113 1.33132 74.3423 2.17578C75.8733 3.01338 77.0508 4.21828 77.8746 5.79048C78.7054 7.36269 79.1207 9.24384 79.1207 11.4339C79.1207 13.6309 78.7054 15.5189 77.8746 17.098C77.0508 18.6771 75.8665 19.8888 74.3217 20.7333C72.7839 21.5778 70.9439 22 68.8018 22ZM65.7844 18.1793H68.6165C69.9347 18.1793 71.0434 17.9459 71.9428 17.479C72.8491 17.0053 73.5288 16.2741 73.9819 15.2855C74.4419 14.29 74.6719 13.0062 74.6719 11.4339C74.6719 9.87547 74.4419 8.60192 73.9819 7.61328C73.5288 6.62464 72.8525 5.8969 71.9531 5.43004C71.0537 4.96319 69.945 4.72976 68.6268 4.72976H65.7844V18.1793ZM95.4513 0.90909H99.9104V14.6058C99.9104 16.1437 99.5431 17.4893 98.8085 18.6428C98.0808 19.7962 97.0612 20.6955 95.7499 21.3409C94.4386 21.9794 92.911 22.2987 91.1672 22.2987C89.4165 22.2987 87.8854 21.9794 86.5741 21.3409C85.2628 20.6955 84.2433 19.7962 83.5155 18.6428C82.7878 17.4893 82.4239 16.1437 82.4239 14.6058V0.90909H86.8831V14.2248C86.8831 15.0281 87.0582 15.7421 87.4083 16.3668C87.7653 16.9916 88.2665 17.4825 88.9118 17.8395C89.5572 18.1965 90.309 18.375 91.1672 18.375C92.0322 18.375 92.784 18.1965 93.4225 17.8395C94.0679 17.4825 94.5656 16.9916 94.9157 16.3668C95.2728 15.7421 95.4513 15.0281 95.4513 14.2248V0.90909ZM122.188 8.29297H117.678C117.595 7.7094 117.427 7.19105 117.173 6.73793C116.919 6.27793 116.593 5.8866 116.195 5.56392C115.796 5.24124 115.336 4.99408 114.815 4.82244C114.3 4.6508 113.74 4.56499 113.136 4.56499C112.044 4.56499 111.094 4.83617 110.283 5.37855C109.473 5.91406 108.845 6.69673 108.399 7.72656C107.953 8.74953 107.729 9.99219 107.729 11.4545C107.729 12.9581 107.953 14.2214 108.399 15.2443C108.852 16.2673 109.484 17.0397 110.294 17.5614C111.104 18.0832 112.041 18.3441 113.105 18.3441C113.702 18.3441 114.255 18.2652 114.763 18.1072C115.278 17.9493 115.735 17.7193 116.133 17.4173C116.531 17.1083 116.861 16.7341 117.121 16.2947C117.389 15.8554 117.575 15.3542 117.678 14.7912L122.188 14.8118C122.071 15.7798 121.78 16.7135 121.313 17.6129C120.853 18.5054 120.232 19.3053 119.449 20.0124C118.673 20.7127 117.746 21.2688 116.668 21.6808C115.597 22.0858 114.386 22.2884 113.033 22.2884C111.152 22.2884 109.47 21.8627 107.987 21.0114C106.511 20.16 105.344 18.9277 104.485 17.3143C103.634 15.7009 103.208 13.7476 103.208 11.4545C103.208 9.15459 103.641 7.19792 104.506 5.58452C105.371 3.97112 106.545 2.74219 108.028 1.89773C109.511 1.0464 111.179 0.620738 113.033 0.620738C114.255 0.620738 115.388 0.792376 116.431 1.13565C117.482 1.47893 118.412 1.98011 119.222 2.6392C120.032 3.29143 120.692 4.09126 121.2 5.03871C121.714 5.98615 122.044 7.0709 122.188 8.29297ZM124.583 4.58558V0.90909H141.904V4.58558H135.447V22H131.04V4.58558H124.583ZM151.469 22V0.90909H155.928V9.61115H164.98V0.90909H169.429V22H164.98V13.2876H155.928V22H151.469ZM186.133 0.90909H190.592V14.6058C190.592 16.1437 190.225 17.4893 189.49 18.6428C188.762 19.7962 187.743 20.6955 186.432 21.3409C185.12 21.9794 183.593 22.2987 181.849 22.2987C180.098 22.2987 178.567 21.9794 177.256 21.3409C175.944 20.6955 174.925 19.7962 174.197 18.6428C173.469 17.4893 173.106 16.1437 173.106 14.6058V0.90909H177.565V14.2248C177.565 15.0281 177.74 15.7421 178.09 16.3668C178.447 16.9916 178.948 17.4825 179.593 17.8395C180.239 18.1965 180.991 18.375 181.849 18.375C182.714 18.375 183.466 18.1965 184.104 17.8395C184.749 17.4825 185.247 16.9916 185.597 16.3668C185.954 15.7421 186.133 15.0281 186.133 14.2248V0.90909ZM211.902 0.90909V22H208.05L198.874 8.7255H198.72V22H194.261V0.90909H198.174L207.278 14.1733H207.463V0.90909H211.902ZM214.783 4.58558V0.90909H232.104V4.58558H225.647V22H221.24V4.58558H214.783Z" fill="#CBD5E1"/>
</svg>
