<svg width="199" height="39" viewBox="0 0 199 39" fill="none" xmlns="http://www.w3.org/2000/svg">
<g clip-path="url(#clip0_4_51)">
<mask id="mask0_4_51" style="mask-type:luminance" maskUnits="userSpaceOnUse" x="0" y="0" width="199" height="39">
<path d="M0 0.000329945V39H198.998V0.000329945H0Z" fill="white"/>
</mask>
<g mask="url(#mask0_4_51)">
<path d="M54.9443 20.186L56.8534 18.2809H52.9433V13.6493H50.8783V28.274C50.8783 30.3632 52.0831 32.0519 54.4926 32.0519H55.9554V30.2775H54.8654C53.5459 30.2775 52.9433 29.5046 52.9433 28.2168V20.186H54.9443ZM161.875 27.6341V11.6618H158.206V27.8595C158.206 29.9431 159.476 32.0548 162.495 32.0548H164.583V28.9575H163.172C162.241 28.9575 161.875 28.5072 161.875 27.6341ZM195.133 17.3857L192.762 26.4519L189.743 17.3857H187.062L184.071 26.4519L181.701 17.3857H177.806L182.321 32.0548H185.34L188.416 22.848L191.492 32.0548H194.512L198.998 17.3857H195.133ZM173.286 28.2818C172.863 28.7042 172.299 28.9295 171.565 28.9295C170.831 28.9295 170.295 28.7042 169.872 28.2818C169.11 27.522 169.025 26.2265 169.025 24.7063C169.025 23.1856 169.11 21.9186 169.872 21.1587C170.295 20.7363 170.831 20.5111 171.565 20.5111C172.299 20.5111 172.863 20.7363 173.286 21.1587C174.048 21.9186 174.133 23.1856 174.133 24.7063C174.133 26.2265 174.048 27.522 173.286 28.2818ZM171.565 17.2168C169.392 17.2168 167.925 18.0613 167.022 19.0187C165.695 20.3984 165.357 22.0597 165.357 24.7063C165.357 27.3808 165.695 29.0422 167.022 30.4219C167.925 31.3791 169.392 32.2237 171.565 32.2237C173.738 32.2237 175.233 31.3791 176.136 30.4219C177.463 29.0422 177.801 27.3808 177.801 24.7063C177.801 22.0597 177.463 20.3984 176.136 19.0187C175.233 18.0613 173.738 17.2168 171.565 17.2168ZM150.084 15.8566V32.0398H153.753V20.4741H156.462V17.6869H153.753V16.0819C153.753 15.2372 154.176 14.7587 155.05 14.7587H156.462V11.6618H154.373C151.382 11.6618 150.084 13.7733 150.084 15.8566ZM141.779 18.7934V17.3857H138.195V32.0548H141.863V23.214C141.863 21.3557 143.105 20.5111 144.234 20.5111C145.137 20.5111 145.605 20.8105 146.17 21.3735L148.946 18.5964C147.931 17.5827 146.915 17.2168 145.475 17.2168C143.895 17.2168 142.484 17.9487 141.779 18.7934ZM127.168 23.3546C127.196 22.7068 127.281 22.313 127.507 21.7779C127.902 20.905 128.72 20.2577 129.962 20.2577C131.204 20.2577 132.022 20.905 132.417 21.7779C132.643 22.313 132.727 22.7068 132.756 23.3546H127.168ZM129.962 17.2168C126.152 17.2168 123.556 19.9196 123.556 24.7063C123.556 30.6471 126.886 32.2237 130.357 32.2237C133.01 32.2237 134.449 31.4071 135.944 29.9147L133.715 27.7468C132.784 28.6761 131.994 29.1264 130.385 29.1264C128.325 29.1264 127.168 27.7468 127.168 25.8606H136.368V24.2277C136.368 20.2014 134.053 17.2168 129.962 17.2168ZM119.855 17.3857L116.892 26.4519L113.901 17.3857H110.035L115.453 32.0548H118.332L123.721 17.3857H119.855ZM105.572 28.2818C105.149 28.7042 104.584 28.9295 103.85 28.9295C103.117 28.9295 102.581 28.7042 102.157 28.2818C101.395 27.522 101.311 26.2265 101.311 24.7063C101.311 23.1856 101.395 21.9186 102.157 21.1587C102.581 20.7363 103.117 20.5111 103.85 20.5111C104.584 20.5111 105.149 20.7363 105.572 21.1587C106.334 21.9186 106.419 23.1856 106.419 24.7063C106.419 26.2265 106.334 27.522 105.572 28.2818ZM103.85 17.2168C101.678 17.2168 100.21 18.0613 99.3073 19.0187C97.9812 20.3984 97.6423 22.0597 97.6423 24.7063C97.6423 27.3808 97.9812 29.0422 99.3073 30.4219C100.21 31.3791 101.678 32.2237 103.85 32.2237C106.023 32.2237 107.519 31.3791 108.422 30.4219C109.748 29.0422 110.087 27.3808 110.087 24.7063C110.087 22.0597 109.748 20.3984 108.422 19.0187C107.519 18.0613 106.023 17.2168 103.85 17.2168ZM94.1474 17.95H91.5727L85.1735 24.1658L85.1834 11.6743H83.1181V32.0519H85.1834L85.1735 26.9127L87.6789 24.4041L92.4124 32.0519H94.9648L89.1095 22.9767L94.1474 17.95ZM76.4589 19.631C77.807 19.631 78.639 20.0314 79.7002 21.2047C79.7002 21.2047 81.083 19.8639 81.0714 19.8518C79.6236 18.3062 78.3942 17.7992 76.4589 17.7992C72.902 17.7992 70.2056 20.2032 70.2056 25.0116C70.2056 29.8193 72.902 32.2237 76.4589 32.2237C78.4095 32.2237 79.6428 31.7083 81.1055 30.1346L79.7002 28.7895C78.639 29.9628 77.807 30.392 76.4589 30.392C75.0821 30.392 73.9347 29.8483 73.1889 28.7895C72.5289 27.8736 72.2709 26.7859 72.2709 25.0116C72.2709 23.2371 72.5289 22.1494 73.1889 21.2336C73.9347 20.1744 75.0821 19.631 76.4589 19.631ZM66.3048 27.0718C66.3048 28.2456 66.075 29.0469 65.5875 29.5046C64.6981 30.3632 63.637 30.4493 62.4322 30.4493C60.1948 30.4493 59.191 29.6765 59.191 28.0449C59.191 26.4139 60.2236 25.5553 62.3463 25.5553H66.3048V27.0718ZM62.7194 17.7992C60.4551 17.7992 59.0288 18.2448 57.7789 19.8236C57.7617 19.845 59.1336 21.1763 59.1336 21.1763C59.9656 20.003 60.8835 19.5736 62.6905 19.5736C65.2722 19.5736 66.3048 20.6041 66.3048 22.6644V24.0095H62.0595C58.9041 24.0095 57.183 25.6126 57.183 28.0738C57.183 29.1899 57.5561 30.2487 58.2442 30.9359C59.1336 31.8517 60.281 32.2237 62.2316 32.2237C64.1248 32.2237 65.1571 31.8517 66.3048 30.7068V32.0519H68.3698V22.4927C68.3698 19.4303 66.5054 17.7992 62.7194 17.7992ZM45.0581 24.124L42.7919 23.9238C41.0137 23.7809 40.3253 23.0652 40.3253 21.8631C40.3253 20.4322 41.415 19.5449 43.4806 19.5449C44.9434 19.5449 46.2344 19.8885 47.2378 20.6608L48.5865 19.3158C47.3241 18.2858 45.5171 17.7992 43.5091 17.7992C40.4971 17.7992 38.3173 19.3446 38.3173 21.9204C38.3173 24.2387 39.7801 25.4693 42.5339 25.6983L44.8575 25.8985C46.4924 26.0419 47.2097 26.7286 47.2097 27.9593C47.2097 29.6191 45.7754 30.4493 43.4518 30.4493C41.7022 30.4493 40.1817 29.9912 39.0628 28.8179L37.6863 30.1918C39.2353 31.68 41.0996 32.2237 43.4806 32.2237C46.894 32.2237 49.2173 30.6495 49.2173 27.9309C49.2173 25.2973 47.525 24.3532 45.0581 24.124Z" fill="#CBD5E1"/>
<path d="M27.8797 35.5199V25.0805H31.3671V39H0V25.0805H3.48742V35.5199H27.8797Z" fill="#CBD5E1"/>
<path d="M6.9787 32.0398H24.4158V28.5602H6.9787V32.0398ZM22.6067 0.000344134L19.8084 2.0769L30.2151 16.0369L33.0133 13.9603L22.6067 0.000344134ZM13.957 8.23051L27.3559 19.3645L29.5877 16.6906L16.1889 5.55669L13.957 8.23051ZM9.58282 15.9679L25.3898 23.313L26.8621 20.1587L11.0551 12.8136L9.58282 15.9679ZM7.32497 24.1203L24.3894 27.6986L25.1066 24.2934L8.04223 20.715L7.32497 24.1203Z" fill="#CBD5E1"/>
</g>
</g>
<defs>
<clipPath id="clip0_4_51">
<rect width="199" height="39" fill="white"/>
</clipPath>
</defs>
</svg>
