<?xml version="1.0" encoding="utf-8"?>
<!-- Generator: Adobe Illustrator 16.0.0, SVG Export Plug-In . SVG Version: 6.00 Build 0)  -->
<!DOCTYPE svg PUBLIC "-//W3C//DTD SVG 1.0//EN" "http://www.w3.org/TR/2001/REC-SVG-20010904/DTD/svg10.dtd">
<svg version="1.0" id="Layer_1" xmlns="http://www.w3.org/2000/svg" xmlns:xlink="http://www.w3.org/1999/xlink" x="0px" y="0px"
	 width="100px" height="100px" viewBox="0 0 100 100" enable-background="new 0 0 100 100" xml:space="preserve">
<path d="M84.16,14.148l-71.047,29.57c0,0-3.359,1.221-3.099,3.473c0.267,2.256,3.008,3.288,3.008,3.288l17.877,6.382
	c0,0,5.396,18.772,6.458,22.344c1.062,3.562,1.914,3.646,1.914,3.646c0.989,0.456,1.888-0.27,1.888-0.27l11.55-11.169L70.71,86.054
	c4.869,2.253,6.641-2.441,6.641-2.441L90,15.935C90,11.427,84.16,14.148,84.16,14.148z M71.582,78.17L52.324,62.51l-5.976,5.777
	l1.314-12.291l25.67-24.329L38.341,52.441l-15.521-5.54l59.217-24.648L71.582,78.17z"/>
</svg>
