<svg width="273" height="93" viewBox="0 0 273 93" fill="none" xmlns="http://www.w3.org/2000/svg">
<g clip-path="url(#clip0_1_5)">
<path d="M116.25 47.68C116.25 60.45 106.26 69.86 94 69.86C81.74 69.86 71.75 60.45 71.75 47.68C71.75 34.82 81.74 25.5 94 25.5C106.26 25.5 116.25 34.82 116.25 47.68ZM106.51 47.68C106.51 39.7 100.72 34.24 94 34.24C87.28 34.24 81.49 39.7 81.49 47.68C81.49 55.58 87.28 61.12 94 61.12C100.72 61.12 106.51 55.57 106.51 47.68Z" fill="#64748B"/>
<path d="M164.25 47.68C164.25 60.45 154.26 69.86 142 69.86C129.74 69.86 119.75 60.45 119.75 47.68C119.75 34.83 129.74 25.5 142 25.5C154.26 25.5 164.25 34.82 164.25 47.68ZM154.51 47.68C154.51 39.7 148.72 34.24 142 34.24C135.28 34.24 129.49 39.7 129.49 47.68C129.49 55.58 135.28 61.12 142 61.12C148.72 61.12 154.51 55.57 154.51 47.68Z" fill="#64748B"/>
<path d="M210.25 26.84V66.66C210.25 83.04 200.59 89.73 189.17 89.73C178.42 89.73 171.95 82.54 169.51 76.66L177.99 73.13C179.5 76.74 183.2 81 189.16 81C196.47 81 201 76.49 201 68V64.81H200.66C198.48 67.5 194.28 69.85 188.98 69.85C177.89 69.85 167.73 60.19 167.73 47.76C167.73 35.24 177.89 25.5 188.98 25.5C194.27 25.5 198.47 27.85 200.66 30.46H201V26.85H210.25V26.84ZM201.69 47.76C201.69 39.95 196.48 34.24 189.85 34.24C183.13 34.24 177.5 39.95 177.5 47.76C177.5 55.49 183.13 61.12 189.85 61.12C196.48 61.12 201.69 55.49 201.69 47.76Z" fill="#64748B"/>
<path d="M225.5 3.5V68.5H216V3.5H225.5Z" fill="#64748B"/>
<path d="M262.52 54.98L270.08 60.02C267.64 63.63 261.76 69.85 251.6 69.85C239 69.85 229.59 60.11 229.59 47.67C229.59 34.48 239.08 25.49 250.51 25.49C262.02 25.49 267.65 34.65 269.49 39.6L270.5 42.12L240.85 54.4C243.12 58.85 246.65 61.12 251.6 61.12C256.56 61.12 260 58.68 262.52 54.98ZM239.25 47L259.07 38.77C257.98 36 254.7 34.07 250.84 34.07C245.89 34.07 239 38.44 239.25 47Z" fill="#64748B"/>
<path d="M35.79 41.91V32.5H67.5C67.81 34.14 67.97 36.08 67.97 38.18C67.97 45.24 66.04 53.97 59.82 60.19C53.77 66.49 46.04 69.85 35.8 69.85C16.82 69.85 0.859985 54.39 0.859985 35.41C0.859985 16.43 16.82 0.970001 35.8 0.970001C46.3 0.970001 53.78 5.09 59.4 10.46L52.76 17.1C48.73 13.32 43.27 10.38 35.79 10.38C21.93 10.38 11.09 21.55 11.09 35.41C11.09 49.27 21.93 60.44 35.79 60.44C44.78 60.44 49.9 56.83 53.18 53.55C55.84 50.89 57.59 47.09 58.28 41.9L35.79 41.91Z" fill="#64748B"/>
</g>
<defs>
<clipPath id="clip0_1_5">
<rect width="272" height="92" fill="white" transform="translate(0.5 0.5)"/>
</clipPath>
</defs>
</svg>
