<svg width="145" height="34" viewBox="0 0 145 34" fill="none" xmlns="http://www.w3.org/2000/svg">
<path d="M21.3756 25.211C22.1652 24.4253 23.4434 24.4273 24.2305 25.2156C25.0176 26.0038 25.0155 27.2798 24.2259 28.0655L20.7196 31.5544C17.4848 34.7733 12.2099 34.82 8.92057 31.6628C8.90156 31.6447 7.43688 30.2135 2.60503 25.492C-0.609473 22.3511 -0.929716 17.3251 2.09522 14.0976L7.73519 8.07959C10.7374 4.87598 16.2715 4.52584 19.7041 7.29211L24.8265 11.4204C25.694 12.1195 25.8295 13.3883 25.1292 14.2542C24.4288 15.1202 23.1579 15.2555 22.2904 14.5563L17.168 10.4281C15.3728 8.9814 12.2326 9.18008 10.6835 10.833L5.04347 16.8511C3.57085 18.4223 3.73214 20.9536 5.42921 22.6118C8.97733 26.0789 11.7118 28.7508 11.715 28.7538C13.4251 30.3952 16.1903 30.3708 17.8693 28.6999L21.3756 25.211Z" fill="#FFA116"/>
<path fill-rule="evenodd" clip-rule="evenodd" d="M12.858 21.7195C11.7431 21.7195 10.8393 20.8173 10.8393 19.7043C10.8393 18.5914 11.7431 17.6891 12.858 17.6891H27.7458C28.8607 17.6891 29.7645 18.5914 29.7645 19.7043C29.7645 20.8173 28.8607 21.7195 27.7458 21.7195H12.858Z" fill="#B3B3B3"/>
<path fill-rule="evenodd" clip-rule="evenodd" d="M15.6461 -0.361547C16.4078 -1.17428 17.6852 -1.21674 18.4994 -0.456392C19.3135 0.303961 19.3561 1.5792 18.5944 2.39193L5.04353 16.8512C3.57087 18.4223 3.73215 20.9535 5.42911 22.6118L11.6871 28.727C12.4838 29.5055 12.4975 30.7814 11.7176 31.5767C10.9377 32.3721 9.65958 32.3857 8.86286 31.6072L2.60484 25.4919C-0.609476 22.3508 -0.929717 17.3249 2.09536 14.0976L15.6461 -0.361547Z" fill="black"/>
<path fill-rule="evenodd" clip-rule="evenodd" d="M41.7698 11.2692V24.5318C41.7698 25.0413 41.9512 25.4768 42.314 25.8384C42.6768 26.1999 43.1138 26.3807 43.6251 26.3807H47.2244C47.5378 26.3807 47.8058 26.4916 48.0284 26.7135C48.2511 26.9354 48.3624 27.2024 48.3624 27.5147V27.5394C48.3624 27.8516 48.2511 28.1146 48.0284 28.3282C47.8058 28.5501 47.5378 28.661 47.2244 28.661H43.6251C42.4789 28.661 41.5018 28.2584 40.6937 27.4531C39.8856 26.6478 39.4815 25.674 39.4815 24.5318V11.2692C39.4815 10.9569 39.5928 10.6899 39.8155 10.468C40.0381 10.2543 40.302 10.1475 40.6071 10.1475H40.6442C40.9493 10.1475 41.2132 10.2543 41.4358 10.468C41.6584 10.6899 41.7698 10.9569 41.7698 11.2692ZM56.1053 17.5061C54.8684 17.5061 53.8129 17.9416 52.9389 18.8126C52.073 19.6837 51.6401 20.7355 51.6401 21.968C51.6401 22.1899 51.6566 22.4077 51.6896 22.6213L59.5191 19.0961C58.6286 18.0361 57.4906 17.5061 56.1053 17.5061ZM62.2403 19.1331C62.3722 19.4125 62.3846 19.7001 62.2774 19.9959C62.1702 20.2835 61.9723 20.4931 61.6837 20.6245C60.5292 21.1422 59.012 21.8242 57.1319 22.6706C54.7983 23.7224 53.2852 24.4045 52.5925 24.7167C53.4831 25.8507 54.654 26.4177 56.1053 26.4177C57.0701 26.4177 57.9441 26.1342 58.7275 25.5672C59.4861 25.0166 60.018 24.3018 60.3231 23.4225C60.5045 22.913 60.8673 22.6583 61.4116 22.6583C61.7991 22.6583 62.1083 22.8185 62.3392 23.139C62.5619 23.4513 62.6072 23.7923 62.4753 24.1621C62.0135 25.4933 61.2054 26.5697 60.051 27.3914C58.8718 28.2378 57.5566 28.661 56.1053 28.661C54.2417 28.661 52.6503 28.0036 51.3309 26.6889C50.0116 25.3741 49.3519 23.7882 49.3519 21.9311C49.3519 20.074 50.0116 18.488 51.3309 17.1733C52.6503 15.8585 54.2417 15.2011 56.1053 15.2011C57.4494 15.2011 58.678 15.5668 59.7912 16.2981C60.8879 17.013 61.7043 17.958 62.2403 19.1331ZM71.1582 17.5061C69.9214 17.5061 68.8659 17.9416 67.9918 18.8126C67.126 19.6837 66.6931 20.7355 66.6931 21.968C66.6931 22.1899 66.7096 22.4077 66.7426 22.6213L74.5721 19.0961C73.6815 18.0361 72.5436 17.5061 71.1582 17.5061ZM77.2932 19.1331C77.4252 19.4125 77.4375 19.7001 77.3303 19.9959C77.2231 20.2835 77.0252 20.4931 76.7366 20.6245C75.5822 21.1422 74.0649 21.8242 72.1849 22.6706C69.8513 23.7224 68.3381 24.4045 67.6455 24.7167C68.536 25.8507 69.707 26.4177 71.1582 26.4177C72.123 26.4177 72.9971 26.1342 73.7805 25.5672C74.5391 25.0166 75.0709 24.3018 75.376 23.4225C75.5575 22.913 75.9203 22.6583 76.4645 22.6583C76.8521 22.6583 77.1613 22.8185 77.3922 23.139C77.6148 23.4513 77.6602 23.7923 77.5282 24.1621C77.0665 25.4933 76.2584 26.5697 75.1039 27.3914C73.9248 28.2378 72.6095 28.661 71.1582 28.661C69.2947 28.661 67.7032 28.0036 66.3839 26.6889C65.0645 25.3741 64.4048 23.7882 64.4048 21.9311C64.4048 20.074 65.0645 18.488 66.3839 17.1733C67.7032 15.8585 69.2947 15.2011 71.1582 15.2011C72.5023 15.2011 73.731 15.5668 74.8442 16.2981C75.9409 17.013 76.7572 17.958 77.2932 19.1331ZM80.9915 10.1475C81.2966 10.1475 81.5605 10.2543 81.7831 10.468C82.0058 10.6899 82.1171 10.9569 82.1171 11.2692V15.2011H84.3435C84.6486 15.2011 84.9125 15.3121 85.1351 15.5339C85.3577 15.7558 85.4691 16.0229 85.4691 16.3351V16.3598C85.4691 16.672 85.3577 16.935 85.1351 17.1486C84.9125 17.3705 84.6486 17.4814 84.3435 17.4814H82.1171V25.1605C82.1171 25.4974 82.2367 25.785 82.4758 26.0233C82.7149 26.2616 83.0077 26.3807 83.354 26.3807H84.3435C84.6486 26.3807 84.9125 26.4916 85.1351 26.7135C85.3577 26.9354 85.4691 27.2024 85.4691 27.5147V27.5394C85.4691 27.8516 85.3577 28.1146 85.1351 28.3282C84.9125 28.5501 84.6486 28.661 84.3435 28.661H83.354C82.381 28.661 81.5481 28.32 80.8555 27.638C80.171 26.9477 79.8288 26.1219 79.8288 25.1605V11.2692C79.8288 10.9569 79.9402 10.6899 80.1628 10.468C80.3854 10.2543 80.6493 10.1475 80.9544 10.1475H80.9915ZM96.1805 10.1475C96.9639 10.1475 97.7349 10.242 98.4935 10.431C99.0625 10.5789 99.347 10.9405 99.347 11.5157V11.5527C99.347 11.9142 99.1985 12.2101 98.9017 12.4401C98.6131 12.662 98.2915 12.7277 97.9369 12.6374C97.3597 12.4894 96.7742 12.4155 96.1805 12.4155C94.251 12.4155 92.6018 13.0975 91.233 14.4616C89.8641 15.8257 89.1797 17.4732 89.1797 19.4043C89.1797 21.3353 89.8641 22.9829 91.233 24.3469C92.6018 25.7028 94.251 26.3807 96.1805 26.3807C96.7742 26.3807 97.3597 26.3109 97.9369 26.1712C98.2915 26.0808 98.6131 26.1465 98.9017 26.3684C99.1985 26.5903 99.347 26.8861 99.347 27.2559V27.2805C99.347 27.8639 99.0625 28.2296 98.4935 28.3775C97.7349 28.5665 96.9639 28.661 96.1805 28.661C93.616 28.661 91.4268 27.7571 89.6126 25.9493C87.7985 24.1415 86.8915 21.9598 86.8915 19.4043C86.8915 16.8487 87.7985 14.667 89.6126 12.8592C91.4268 11.0514 93.616 10.1475 96.1805 10.1475ZM107.708 17.5061C106.471 17.5061 105.416 17.9416 104.542 18.8126C103.676 19.6837 103.243 20.7355 103.243 21.968C103.243 23.1924 103.676 24.2401 104.542 25.1112C105.416 25.9822 106.471 26.4177 107.708 26.4177C108.945 26.4177 109.997 25.9822 110.862 25.1112C111.736 24.2401 112.174 23.1924 112.174 21.968C112.174 20.7355 111.736 19.6837 110.862 18.8126C109.997 17.9416 108.945 17.5061 107.708 17.5061ZM107.708 15.2011C109.572 15.2011 111.163 15.8585 112.483 17.1733C113.802 18.488 114.462 20.074 114.462 21.9311C114.462 23.7882 113.802 25.3741 112.483 26.6889C111.163 28.0036 109.572 28.661 107.708 28.661C105.845 28.661 104.253 28.0036 102.934 26.6889C101.615 25.3741 100.955 23.7882 100.955 21.9311C100.955 20.074 101.615 18.488 102.934 17.1733C104.253 15.8585 105.845 15.2011 107.708 15.2011ZM122.947 17.5061C121.71 17.5061 120.654 17.9416 119.78 18.8126C118.915 19.6837 118.482 20.7355 118.482 21.968C118.482 23.1924 118.915 24.2401 119.78 25.1112C120.654 25.9822 121.71 26.4177 122.947 26.4177C124.184 26.4177 125.235 25.9822 126.101 25.1112C126.975 24.2401 127.412 23.1924 127.412 21.968C127.412 20.7355 126.975 19.6837 126.101 18.8126C125.235 17.9416 124.184 17.5061 122.947 17.5061ZM128.575 10.1475C128.88 10.1475 129.144 10.2543 129.366 10.468C129.589 10.6899 129.7 10.9569 129.7 11.2692V21.968C129.692 23.8169 129.028 25.3946 127.709 26.7012C126.389 28.0077 124.802 28.661 122.947 28.661C121.083 28.661 119.492 28.0036 118.172 26.6889C116.853 25.3741 116.193 23.7882 116.193 21.9311C116.193 20.074 116.853 18.488 118.172 17.1733C119.492 15.8585 121.083 15.2011 122.947 15.2011C124.645 15.2011 126.134 15.764 127.412 16.8898V11.2692C127.412 10.9569 127.523 10.6899 127.746 10.468C127.969 10.2543 128.232 10.1475 128.538 10.1475H128.575ZM138.556 17.5061C137.319 17.5061 136.264 17.9416 135.39 18.8126C134.524 19.6837 134.091 20.7355 134.091 21.968C134.091 22.1899 134.108 22.4077 134.141 22.6213L141.97 19.0961C141.08 18.0361 139.942 17.5061 138.556 17.5061ZM144.691 19.1331C144.823 19.4125 144.836 19.7001 144.728 19.9959C144.621 20.2835 144.423 20.4931 144.135 20.6245C142.98 21.1422 141.463 21.8242 139.583 22.6706C137.249 23.7224 135.736 24.4045 135.044 24.7167C135.934 25.8507 137.105 26.4177 138.556 26.4177C139.521 26.4177 140.395 26.1342 141.179 25.5672C141.937 25.0166 142.469 24.3018 142.774 23.4225C142.956 22.913 143.318 22.6583 143.863 22.6583C144.25 22.6583 144.559 22.8185 144.79 23.139C145.013 23.4513 145.058 23.7923 144.926 24.1621C144.465 25.4933 143.656 26.5697 142.502 27.3914C141.323 28.2378 140.008 28.661 138.556 28.661C136.693 28.661 135.101 28.0036 133.782 26.6889C132.463 25.3741 131.803 23.7882 131.803 21.9311C131.803 20.074 132.463 18.488 133.782 17.1733C135.101 15.8585 136.693 15.2011 138.556 15.2011C139.9 15.2011 141.129 15.5668 142.242 16.2981C143.339 17.013 144.155 17.958 144.691 19.1331Z" fill="black"/>
</svg>
