<svg width="146" height="35" viewBox="0 0 146 35" fill="none" xmlns="http://www.w3.org/2000/svg">
<g clip-path="url(#clip0_1_18)">
<path d="M21.8756 25.711C22.6652 24.9253 23.9434 24.9273 24.7305 25.7156C25.5176 26.5038 25.5155 27.7798 24.7259 28.5655L21.2196 32.0544C17.9848 35.2733 12.7099 35.32 9.42057 32.1628C9.40156 32.1447 7.93688 30.7135 3.10503 25.992C-0.109473 22.8511 -0.429716 17.8251 2.59522 14.5976L8.23519 8.57959C11.2374 5.37598 16.7715 5.02584 20.2041 7.79211L25.3265 11.9204C26.194 12.6195 26.3295 13.8883 25.6292 14.7542C24.9288 15.6202 23.6579 15.7555 22.7904 15.0563L17.668 10.9281C15.8728 9.4814 12.7326 9.68008 11.1835 11.333L5.54347 17.3511C4.07085 18.9223 4.23214 21.4536 5.92921 23.1118C9.47733 26.5789 12.2118 29.2508 12.215 29.2538C13.9251 30.8952 16.6903 30.8708 18.3693 29.1999L21.8756 25.711Z" fill="#64748B"/>
<path fill-rule="evenodd" clip-rule="evenodd" d="M13.358 22.2195C12.2431 22.2195 11.3393 21.3173 11.3393 20.2043C11.3393 19.0914 12.2431 18.1891 13.358 18.1891H28.2458C29.3607 18.1891 30.2645 19.0914 30.2645 20.2043C30.2645 21.3173 29.3607 22.2195 28.2458 22.2195H13.358Z" fill="#64748B"/>
<path fill-rule="evenodd" clip-rule="evenodd" d="M16.1461 0.138451C16.9078 -0.674282 18.1852 -0.716742 18.9994 0.0436061C19.8135 0.803959 19.8561 2.0792 19.0944 2.89193L5.54353 17.3512C4.07087 18.9223 4.23215 21.4535 5.92911 23.1118L12.1871 29.227C12.9838 30.0055 12.9975 31.2814 12.2176 32.0767C11.4377 32.8721 10.1596 32.8857 9.36286 32.1072L3.10484 25.9919C-0.109476 22.8508 -0.429717 17.8249 2.59536 14.5976L16.1461 0.138451Z" fill="#64748B"/>
<path fill-rule="evenodd" clip-rule="evenodd" d="M42.2698 11.7692V25.0318C42.2698 25.5413 42.4512 25.9768 42.814 26.3384C43.1768 26.6999 43.6138 26.8807 44.1251 26.8807H47.7244C48.0378 26.8807 48.3058 26.9916 48.5284 27.2135C48.7511 27.4354 48.8624 27.7024 48.8624 28.0147V28.0394C48.8624 28.3516 48.7511 28.6146 48.5284 28.8282C48.3058 29.0501 48.0378 29.161 47.7244 29.161H44.1251C42.9789 29.161 42.0018 28.7584 41.1937 27.9531C40.3856 27.1478 39.9815 26.174 39.9815 25.0318V11.7692C39.9815 11.4569 40.0928 11.1899 40.3155 10.968C40.5381 10.7543 40.802 10.6475 41.1071 10.6475H41.1442C41.4493 10.6475 41.7132 10.7543 41.9358 10.968C42.1584 11.1899 42.2698 11.4569 42.2698 11.7692ZM56.6053 18.0061C55.3684 18.0061 54.3129 18.4416 53.4389 19.3126C52.573 20.1837 52.1401 21.2355 52.1401 22.468C52.1401 22.6899 52.1566 22.9077 52.1896 23.1213L60.0191 19.5961C59.1286 18.5361 57.9906 18.0061 56.6053 18.0061ZM62.7403 19.6331C62.8722 19.9125 62.8846 20.2001 62.7774 20.4959C62.6702 20.7835 62.4723 20.9931 62.1837 21.1245C61.0292 21.6422 59.512 22.3242 57.6319 23.1706C55.2983 24.2224 53.7852 24.9045 53.0925 25.2167C53.9831 26.3507 55.154 26.9177 56.6053 26.9177C57.5701 26.9177 58.4441 26.6342 59.2275 26.0672C59.9861 25.5166 60.518 24.8018 60.8231 23.9225C61.0045 23.413 61.3673 23.1583 61.9116 23.1583C62.2991 23.1583 62.6083 23.3185 62.8392 23.639C63.0619 23.9513 63.1072 24.2923 62.9753 24.6621C62.5135 25.9933 61.7054 27.0697 60.551 27.8914C59.3718 28.7378 58.0566 29.161 56.6053 29.161C54.7417 29.161 53.1503 28.5036 51.8309 27.1889C50.5116 25.8741 49.8519 24.2882 49.8519 22.4311C49.8519 20.574 50.5116 18.988 51.8309 17.6733C53.1503 16.3585 54.7417 15.7011 56.6053 15.7011C57.9494 15.7011 59.178 16.0668 60.2912 16.7981C61.3879 17.513 62.2043 18.458 62.7403 19.6331ZM71.6582 18.0061C70.4214 18.0061 69.3659 18.4416 68.4918 19.3126C67.626 20.1837 67.1931 21.2355 67.1931 22.468C67.1931 22.6899 67.2096 22.9077 67.2426 23.1213L75.0721 19.5961C74.1815 18.5361 73.0436 18.0061 71.6582 18.0061ZM77.7932 19.6331C77.9252 19.9125 77.9375 20.2001 77.8303 20.4959C77.7231 20.7835 77.5252 20.9931 77.2366 21.1245C76.0822 21.6422 74.5649 22.3242 72.6849 23.1706C70.3513 24.2224 68.8381 24.9045 68.1455 25.2167C69.036 26.3507 70.207 26.9177 71.6582 26.9177C72.623 26.9177 73.4971 26.6342 74.2805 26.0672C75.0391 25.5166 75.5709 24.8018 75.876 23.9225C76.0575 23.413 76.4203 23.1583 76.9645 23.1583C77.3521 23.1583 77.6613 23.3185 77.8922 23.639C78.1148 23.9513 78.1602 24.2923 78.0282 24.6621C77.5665 25.9933 76.7584 27.0697 75.6039 27.8914C74.4248 28.7378 73.1095 29.161 71.6582 29.161C69.7947 29.161 68.2032 28.5036 66.8839 27.1889C65.5645 25.8741 64.9048 24.2882 64.9048 22.4311C64.9048 20.574 65.5645 18.988 66.8839 17.6733C68.2032 16.3585 69.7947 15.7011 71.6582 15.7011C73.0023 15.7011 74.231 16.0668 75.3442 16.7981C76.4409 17.513 77.2572 18.458 77.7932 19.6331ZM81.4915 10.6475C81.7966 10.6475 82.0605 10.7543 82.2831 10.968C82.5058 11.1899 82.6171 11.4569 82.6171 11.7692V15.7011H84.8435C85.1486 15.7011 85.4125 15.8121 85.6351 16.0339C85.8577 16.2558 85.9691 16.5229 85.9691 16.8351V16.8598C85.9691 17.172 85.8577 17.435 85.6351 17.6486C85.4125 17.8705 85.1486 17.9814 84.8435 17.9814H82.6171V25.6605C82.6171 25.9974 82.7367 26.285 82.9758 26.5233C83.2149 26.7616 83.5077 26.8807 83.854 26.8807H84.8435C85.1486 26.8807 85.4125 26.9916 85.6351 27.2135C85.8577 27.4354 85.9691 27.7024 85.9691 28.0147V28.0394C85.9691 28.3516 85.8577 28.6146 85.6351 28.8282C85.4125 29.0501 85.1486 29.161 84.8435 29.161H83.854C82.881 29.161 82.0481 28.82 81.3555 28.138C80.671 27.4477 80.3288 26.6219 80.3288 25.6605V11.7692C80.3288 11.4569 80.4402 11.1899 80.6628 10.968C80.8854 10.7543 81.1493 10.6475 81.4544 10.6475H81.4915ZM96.6805 10.6475C97.4639 10.6475 98.2349 10.742 98.9935 10.931C99.5625 11.0789 99.847 11.4405 99.847 12.0157V12.0527C99.847 12.4142 99.6985 12.7101 99.4017 12.9401C99.1131 13.162 98.7915 13.2277 98.4369 13.1374C97.8597 12.9894 97.2742 12.9155 96.6805 12.9155C94.751 12.9155 93.1018 13.5975 91.733 14.9616C90.3641 16.3257 89.6797 17.9732 89.6797 19.9043C89.6797 21.8353 90.3641 23.4829 91.733 24.8469C93.1018 26.2028 94.751 26.8807 96.6805 26.8807C97.2742 26.8807 97.8597 26.8109 98.4369 26.6712C98.7915 26.5808 99.1131 26.6465 99.4017 26.8684C99.6985 27.0903 99.847 27.3861 99.847 27.7559V27.7805C99.847 28.3639 99.5625 28.7296 98.9935 28.8775C98.2349 29.0665 97.4639 29.161 96.6805 29.161C94.116 29.161 91.9268 28.2571 90.1126 26.4493C88.2985 24.6415 87.3915 22.4598 87.3915 19.9043C87.3915 17.3487 88.2985 15.167 90.1126 13.3592C91.9268 11.5514 94.116 10.6475 96.6805 10.6475ZM108.208 18.0061C106.971 18.0061 105.916 18.4416 105.042 19.3126C104.176 20.1837 103.743 21.2355 103.743 22.468C103.743 23.6924 104.176 24.7401 105.042 25.6112C105.916 26.4822 106.971 26.9177 108.208 26.9177C109.445 26.9177 110.497 26.4822 111.362 25.6112C112.236 24.7401 112.674 23.6924 112.674 22.468C112.674 21.2355 112.236 20.1837 111.362 19.3126C110.497 18.4416 109.445 18.0061 108.208 18.0061ZM108.208 15.7011C110.072 15.7011 111.663 16.3585 112.983 17.6733C114.302 18.988 114.962 20.574 114.962 22.4311C114.962 24.2882 114.302 25.8741 112.983 27.1889C111.663 28.5036 110.072 29.161 108.208 29.161C106.345 29.161 104.753 28.5036 103.434 27.1889C102.115 25.8741 101.455 24.2882 101.455 22.4311C101.455 20.574 102.115 18.988 103.434 17.6733C104.753 16.3585 106.345 15.7011 108.208 15.7011ZM123.447 18.0061C122.21 18.0061 121.154 18.4416 120.28 19.3126C119.415 20.1837 118.982 21.2355 118.982 22.468C118.982 23.6924 119.415 24.7401 120.28 25.6112C121.154 26.4822 122.21 26.9177 123.447 26.9177C124.684 26.9177 125.735 26.4822 126.601 25.6112C127.475 24.7401 127.912 23.6924 127.912 22.468C127.912 21.2355 127.475 20.1837 126.601 19.3126C125.735 18.4416 124.684 18.0061 123.447 18.0061ZM129.075 10.6475C129.38 10.6475 129.644 10.7543 129.866 10.968C130.089 11.1899 130.2 11.4569 130.2 11.7692V22.468C130.192 24.3169 129.528 25.8946 128.209 27.2012C126.889 28.5077 125.302 29.161 123.447 29.161C121.583 29.161 119.992 28.5036 118.672 27.1889C117.353 25.8741 116.693 24.2882 116.693 22.4311C116.693 20.574 117.353 18.988 118.672 17.6733C119.992 16.3585 121.583 15.7011 123.447 15.7011C125.145 15.7011 126.634 16.264 127.912 17.3898V11.7692C127.912 11.4569 128.023 11.1899 128.246 10.968C128.469 10.7543 128.732 10.6475 129.038 10.6475H129.075ZM139.056 18.0061C137.819 18.0061 136.764 18.4416 135.89 19.3126C135.024 20.1837 134.591 21.2355 134.591 22.468C134.591 22.6899 134.608 22.9077 134.641 23.1213L142.47 19.5961C141.58 18.5361 140.442 18.0061 139.056 18.0061ZM145.191 19.6331C145.323 19.9125 145.336 20.2001 145.228 20.4959C145.121 20.7835 144.923 20.9931 144.635 21.1245C143.48 21.6422 141.963 22.3242 140.083 23.1706C137.749 24.2224 136.236 24.9045 135.544 25.2167C136.434 26.3507 137.605 26.9177 139.056 26.9177C140.021 26.9177 140.895 26.6342 141.679 26.0672C142.437 25.5166 142.969 24.8018 143.274 23.9225C143.456 23.413 143.818 23.1583 144.363 23.1583C144.75 23.1583 145.059 23.3185 145.29 23.639C145.513 23.9513 145.558 24.2923 145.426 24.6621C144.965 25.9933 144.156 27.0697 143.002 27.8914C141.823 28.7378 140.508 29.161 139.056 29.161C137.193 29.161 135.601 28.5036 134.282 27.1889C132.963 25.8741 132.303 24.2882 132.303 22.4311C132.303 20.574 132.963 18.988 134.282 17.6733C135.601 16.3585 137.193 15.7011 139.056 15.7011C140.4 15.7011 141.629 16.0668 142.742 16.7981C143.839 17.513 144.655 18.458 145.191 19.6331Z" fill="#64748B"/>
</g>
<defs>
<clipPath id="clip0_1_18">
<rect width="145" height="34" fill="white" transform="translate(0.5 0.5)"/>
</clipPath>
</defs>
</svg>
