<svg width="145" height="33" viewBox="0 0 145 33" fill="none" xmlns="http://www.w3.org/2000/svg">
<mask id="mask0_2_80" style="mask-type:luminance" maskUnits="userSpaceOnUse" x="0" y="0" width="145" height="33">
<path d="M145 0H0V33H145V0Z" fill="white"/>
</mask>
<g mask="url(#mask0_2_80)">
<path d="M-0.000168308 15.6627C-0.000168308 11.3941 -0.000168308 7.12544 -0.000168308 2.85679C-0.000168308 2.56127 -0.00829153 2.24933 0.0566943 1.96201C0.300391 0.853807 1.16145 0.106794 2.28246 0.0082868C2.46929 -0.00813108 2.66425 7.786e-05 2.85108 7.786e-05C11.2667 7.786e-05 19.6905 7.786e-05 28.1062 7.786e-05C28.2687 7.786e-05 28.4311 -0.00813108 28.5936 7.786e-05C29.9502 0.0739583 30.9087 1.04261 30.9981 2.41351C31.0062 2.60231 30.9981 2.79933 30.9981 2.98813C30.9981 11.4433 30.9981 19.8903 30.9981 28.3455C30.9981 28.6985 31.0062 29.0515 30.9168 29.4045C30.6325 30.5127 29.7877 31.2433 28.6586 31.3172C28.4392 31.3336 28.228 31.3254 28.0087 31.3254C19.6418 31.3254 11.283 31.3254 2.91607 31.3254C2.72924 31.3254 2.53428 31.3336 2.34744 31.3172C0.998988 31.2351 0.048571 30.2336 -0.00829153 28.8627C-0.0164148 28.6411 -0.00829153 28.4276 -0.00829153 28.206C-0.000168308 24.0358 -0.000168308 19.8493 -0.000168308 15.6627ZM16.6606 13.3232C16.6606 12.9784 16.6443 12.6336 16.6687 12.2889C16.6931 11.8948 16.5387 11.7553 16.1569 11.7635C14.9628 11.7799 13.7768 11.7799 12.5827 11.7635C12.2497 11.7635 12.0628 11.862 12.0872 12.2314C12.1034 12.4202 12.0872 12.6172 12.0872 12.806C12.0872 16.4426 12.0872 20.0791 12.0872 23.7157C12.0872 24.4791 12.0791 25.2508 12.0872 26.0142C12.0953 26.5806 12.1034 26.5888 12.6883 26.597C13.8256 26.6052 14.9628 26.6052 16.1001 26.597C16.6606 26.5888 16.6768 26.5806 16.6768 25.9896C16.6849 24.4052 16.6768 22.8209 16.6849 21.2284C16.6931 20.1366 16.6524 19.0366 16.7337 17.9448C16.8555 16.262 17.8547 15.3918 19.5199 15.4165C20.576 15.4329 21.2502 15.9336 21.5751 16.9433C21.7701 17.5508 21.8026 18.1747 21.8026 18.8068C21.8026 21.1873 21.8026 23.5679 21.8026 25.9485C21.8026 26.5806 21.8107 26.5888 22.4199 26.597C23.5003 26.6052 24.5888 26.6052 25.6692 26.597C26.3191 26.597 26.3272 26.5888 26.3272 25.9157C26.3272 23.0426 26.3272 20.1694 26.3272 17.3045C26.3272 16.2866 26.1485 15.2933 25.7992 14.3329C25.3199 13.0277 24.4345 12.0918 23.0942 11.7142C20.7059 11.0247 18.5208 11.2545 16.6606 13.3232ZM9.1872 19.1515C9.1872 18.6344 9.1872 18.1172 9.1872 17.5918C9.1872 15.8433 9.19532 14.0948 9.1872 12.3463C9.1872 11.7553 9.17095 11.7553 8.60233 11.7553C8.05807 11.7553 7.52194 11.7635 6.97768 11.7635C6.32782 11.7635 5.67797 11.7717 5.02811 11.7635C4.76004 11.7635 4.63007 11.8784 4.63819 12.1493C4.64632 12.3381 4.63819 12.5351 4.63819 12.7239C4.63819 15.6217 4.63819 18.5112 4.63819 21.409C4.63819 22.9687 4.64632 24.5202 4.63007 26.0799C4.63007 26.4739 4.75192 26.6052 5.14183 26.597C6.24659 26.5724 7.35947 26.597 8.46423 26.5888C9.16283 26.5888 9.17095 26.5806 9.17908 25.8664C9.1872 23.6254 9.1872 21.3926 9.1872 19.1515ZM6.89645 4.37544C5.44239 4.38365 4.2564 5.59036 4.26452 7.04335C4.27265 8.4717 5.49926 9.68662 6.92894 9.67841C8.35863 9.67021 9.56087 8.44707 9.55274 7.0023C9.55274 5.56574 8.34238 4.36723 6.89645 4.37544ZM143.407 14.8583C143.407 14.4232 143.399 13.9881 143.407 13.553C143.407 13.3971 143.375 13.1754 143.578 13.1426C144.008 13.0769 144.439 13.0851 144.869 13.1426C144.991 13.159 145.04 13.2657 145.04 13.3806C145.048 13.6023 145.048 13.8157 145.048 14.0374C145.048 18.2239 145.048 22.4105 145.048 26.597C145.048 29.5523 143.789 31.3746 141.035 32.3679C139.216 33.0246 137.347 33.2052 135.446 32.8112C134.537 32.6224 133.716 32.1955 132.961 31.6537C132.725 31.4814 132.595 31.2925 132.652 30.9642C132.741 30.4881 132.766 30.0037 132.815 29.544C133.091 29.4537 133.148 29.659 133.253 29.7575C134.431 30.8411 135.82 31.3664 137.404 31.3172C138.883 31.2761 140.304 30.9642 141.563 30.1187C142.774 29.2978 143.456 28.1896 143.407 26.6791C143.391 26.1702 143.407 25.6612 143.407 25.1523C143.042 25.1441 142.944 25.3739 142.798 25.5135C139.378 28.756 134.277 28.009 131.905 23.9209C130.077 20.7687 130.751 16.5985 133.481 14.2015C136.113 11.8866 139.963 11.9441 142.595 14.3411C142.806 14.5381 143.017 14.7351 143.229 14.9321C143.294 14.9075 143.35 14.8829 143.407 14.8583ZM132.66 19.956C132.66 20.5635 132.709 21.1545 132.904 21.7373C133.554 23.7321 134.845 25.0948 136.892 25.5381C138.907 25.9732 140.629 25.3082 141.969 23.7157C143.757 21.5732 143.7 18.2732 141.848 16.1881C139.703 13.7583 136.104 13.7993 134.009 16.2784C133.115 17.3374 132.685 18.5687 132.66 19.956ZM80.5985 14.9486C80.5985 14.4232 80.6066 13.9881 80.5985 13.553C80.5903 13.2411 80.7122 13.0933 81.0209 13.118C81.0453 13.118 81.0777 13.118 81.1021 13.118C82.4587 13.1344 82.2475 12.9702 82.2475 14.2097C82.2556 18.1993 82.2475 22.197 82.2556 26.1866C82.2556 27.2291 82.2637 27.0567 81.3864 27.0732C81.2483 27.0732 81.1184 27.0649 80.9803 27.0732C80.7041 27.0814 80.5903 26.9582 80.5985 26.6791C80.6066 26.1702 80.5985 25.6612 80.5985 25.1687C80.3142 25.1194 80.2329 25.2918 80.1273 25.3985C76.6018 29.0269 70.94 27.8612 68.8279 23.3299C67.2845 20.0135 68.2593 15.9911 71.143 13.8486C73.7993 11.8702 77.4629 12.1001 79.8755 14.3903C80.0623 14.5709 80.2086 14.8172 80.5985 14.9486ZM80.4766 19.9396C80.4604 19.5045 80.4279 18.9053 80.241 18.3224C79.5831 16.2948 78.259 14.9239 76.1794 14.4971C74.1974 14.0866 72.4915 14.7515 71.1755 16.3194C69.2909 18.5687 69.4534 21.9918 71.5086 24.0851C73.4744 26.0881 76.545 26.1948 78.6164 24.3149C79.843 23.1985 80.4523 21.7784 80.4766 19.9396ZM54.531 20.7605C54.6691 22.2956 55.3515 23.5597 56.5294 24.5284C59.1613 26.6955 62.5893 25.4314 64.1327 23.4694C64.2302 23.3381 64.3358 23.2067 64.4089 23.0672C64.5389 22.8373 64.6932 22.7635 64.9369 22.9112C65.075 22.9933 65.2293 23.0508 65.3755 23.1247C66.2366 23.5515 66.2447 23.5515 65.7167 24.3232C63.7265 27.2291 59.1694 28.912 55.6358 26.162C53.7187 24.6679 52.7521 22.6321 52.7358 20.1941C52.7196 17.1321 53.9462 14.7187 56.6674 13.2493C59.4537 11.7471 62.8005 12.5269 64.8394 15.0881C65.9442 16.4754 66.5047 18.0762 66.5534 19.8493C66.5778 20.6538 66.5534 20.662 65.7736 20.662C62.3375 20.662 58.9013 20.662 55.4652 20.6702C55.1728 20.662 54.8722 20.6045 54.531 20.7605ZM64.6445 18.9956C64.4576 16.4015 62.045 14.3165 59.4375 14.3986C57.0086 14.4806 54.6691 16.7053 54.6529 18.9956C57.9672 18.9956 61.2814 18.9956 64.6445 18.9956ZM96.3007 13.9717C96.3413 12.9784 96.2519 13.1262 95.3909 13.118C94.6923 13.1098 94.6679 13.003 94.6679 13.906C94.6679 18.0351 94.6679 22.1724 94.6679 26.3015C94.6679 26.4657 94.676 26.6299 94.676 26.794C94.6841 26.9993 94.7979 27.0814 94.9847 27.0814C95.0903 27.0814 95.204 27.0896 95.3096 27.0814C96.3819 27.0732 96.2925 27.1799 96.2925 26.1373C96.2925 23.6172 96.3169 21.1053 96.2763 18.5851C96.26 17.7642 96.5119 17.0911 96.9993 16.4754C97.8035 15.4575 98.827 14.7762 100.094 14.4971C102.255 14.0127 104.083 15.1456 104.546 17.2306C104.627 17.5836 104.611 17.9366 104.611 18.2896C104.611 20.9411 104.611 23.6008 104.611 26.2523C104.611 27.1552 104.57 27.0732 105.464 27.0814C106.292 27.0814 106.252 27.1224 106.252 26.2687C106.252 23.2888 106.26 20.3008 106.243 17.3209C106.235 15.1784 104.936 13.3971 102.905 12.7814C100.752 12.1247 98.7864 12.609 96.983 13.8978C96.7962 14.0292 96.6662 14.2754 96.4144 14.2754C96.2844 14.1851 96.2925 14.0702 96.3007 13.9717ZM118.258 14.0456C118.25 13.0769 118.412 13.118 117.348 13.118C116.633 13.118 116.625 13.1262 116.625 13.906C116.625 18.0105 116.625 22.115 116.625 26.2112C116.625 27.1634 116.56 27.0732 117.519 27.0732C118.25 27.0732 118.258 27.0649 118.258 26.2933C118.258 23.7485 118.298 21.2038 118.241 18.659C118.217 17.7314 118.526 17.0172 119.07 16.3441C119.574 15.7202 120.191 15.2359 120.906 14.8911C121.572 14.5627 122.271 14.3986 123.018 14.3903C125.024 14.3739 126.543 15.8351 126.56 17.8627C126.584 20.5717 126.56 23.2806 126.568 25.9896C126.576 27.1963 126.365 27.0732 127.648 27.0732C128.209 27.0732 128.225 27.0567 128.225 26.4657C128.233 24.7993 128.225 23.1329 128.225 21.4582C128.225 20.0627 128.249 18.6672 128.217 17.2717C128.16 15.0635 126.868 13.356 124.764 12.7403C122.636 12.1247 120.703 12.6336 118.932 13.906C118.737 14.0456 118.607 14.2672 118.29 14.3411C118.274 14.2097 118.266 14.1277 118.258 14.0456ZM40.1367 26.0881C40.1367 26.2769 40.1448 26.4739 40.1367 26.6627C40.1204 26.9911 40.2829 27.0978 40.5835 27.0814C40.7216 27.0732 40.8515 27.0814 40.9896 27.0814C44.2633 27.0814 47.5369 27.0814 50.8187 27.0814C50.9812 27.0814 51.1437 27.0732 51.3061 27.0814C51.5986 27.0896 51.696 26.909 51.6554 26.6627C51.5904 26.2605 51.8747 25.7926 51.4442 25.4642C51.3874 25.4232 51.2899 25.4396 51.2086 25.4396C51.0218 25.4396 50.8269 25.4396 50.64 25.4396C47.9025 25.4396 45.1731 25.4396 42.4356 25.4396C41.802 25.4396 41.802 25.4232 41.7857 24.8075C41.7776 24.6187 41.7857 24.4217 41.7857 24.2329C41.7857 17.9941 41.7857 11.7553 41.7857 5.52469C41.7857 4.30156 41.7857 4.31798 40.5672 4.40828C40.2667 4.4329 40.1204 4.53141 40.1367 4.84335C40.1448 5.03216 40.1367 5.22917 40.1367 5.41798C40.1367 8.8411 40.1367 12.256 40.1367 15.6791C40.1367 19.1351 40.1367 22.6075 40.1367 26.0881ZM87.5844 13.512C87.5926 13.2411 87.4788 13.1098 87.2026 13.118C87.0402 13.1262 86.8777 13.118 86.7153 13.118C85.9598 13.118 85.9517 13.118 85.9517 13.865C85.9517 16.5411 85.9517 19.2254 85.9517 21.9015C85.9517 23.3791 85.9517 24.8567 85.9517 26.3261C85.9517 27.0649 85.9598 27.0649 86.7153 27.0732C86.7721 27.0732 86.8209 27.0732 86.8777 27.0732C87.5763 27.0649 87.5844 27.0649 87.5844 26.3508C87.5844 23.6993 87.5844 21.0478 87.5844 18.3963C87.5844 18.0433 87.5926 17.6903 87.7632 17.362C88.5836 15.8351 89.8102 14.8583 91.4998 14.4642C91.8491 14.3821 92.3528 14.6202 92.5315 14.2015C92.6696 13.8732 92.5721 13.4463 92.5884 13.0687C92.5884 13.0441 92.5884 13.0112 92.5884 12.9866C92.6371 12.5598 92.4015 12.4695 92.0441 12.5105C91.0693 12.609 90.127 12.8389 89.2578 13.315C88.7136 13.6105 88.2343 14.0127 87.5844 14.4889C87.5844 14.0456 87.5763 13.7747 87.5844 13.512ZM112.701 20.1612C112.701 18.6836 112.701 17.206 112.701 15.7284C112.701 15.0142 112.701 14.3083 112.701 13.5941C112.701 13.315 112.661 13.1098 112.312 13.1098C111.199 13.118 110.094 13.1098 108.981 13.1098C108.843 13.1098 108.689 13.118 108.664 13.2903C108.607 13.7254 108.591 14.1605 108.672 14.5956C108.713 14.809 108.924 14.7597 109.078 14.7597C109.542 14.768 109.996 14.7515 110.459 14.768C111.028 14.7844 111.028 14.7926 111.044 15.3836C111.052 15.5478 111.044 15.712 111.044 15.8762C111.044 19.2993 111.044 22.7142 111.044 26.1373C111.044 27.2373 110.963 27.0732 112.011 27.0814C112.677 27.0814 112.685 27.0732 112.685 26.4082C112.71 24.3232 112.71 22.2381 112.701 20.1612ZM110.013 7.95454C110.029 8.88215 110.849 9.662 111.775 9.62916C112.677 9.59633 113.392 8.8411 113.4 7.9217C113.408 6.96126 112.653 6.21424 111.702 6.22245C110.76 6.23066 109.996 7.02693 110.013 7.95454Z" fill="#0A66C2"/>
</g>
</svg>
