<svg width="146" height="34" viewBox="0 0 146 34" fill="none" xmlns="http://www.w3.org/2000/svg">
<g clip-path="url(#clip0_1_12)">
<mask id="mask0_1_12" style="mask-type:luminance" maskUnits="userSpaceOnUse" x="0" y="0" width="146" height="34">
<path d="M145.5 0.5H0.5V33.5H145.5V0.5Z" fill="white"/>
</mask>
<g mask="url(#mask0_1_12)">
<path d="M0.499832 16.1627C0.499832 11.8941 0.499832 7.62544 0.499832 3.35679C0.499832 3.06127 0.491708 2.74933 0.556694 2.46201C0.800391 1.35381 1.66145 0.606794 2.78246 0.508287C2.96929 0.491869 3.16425 0.500078 3.35108 0.500078C11.7667 0.500078 20.1905 0.500078 28.6062 0.500078C28.7687 0.500078 28.9311 0.491869 29.0936 0.500078C30.4502 0.573958 31.4087 1.54261 31.4981 2.91351C31.5062 3.10231 31.4981 3.29933 31.4981 3.48813C31.4981 11.9433 31.4981 20.3903 31.4981 28.8455C31.4981 29.1985 31.5062 29.5515 31.4168 29.9045C31.1325 31.0127 30.2877 31.7433 29.1586 31.8172C28.9392 31.8336 28.728 31.8254 28.5087 31.8254C20.1418 31.8254 11.783 31.8254 3.41607 31.8254C3.22924 31.8254 3.03428 31.8336 2.84744 31.8172C1.49899 31.7351 0.548571 30.7336 0.491708 29.3627C0.483585 29.1411 0.491708 28.9276 0.491708 28.706C0.499832 24.5358 0.499832 20.3493 0.499832 16.1627ZM17.1606 13.8232C17.1606 13.4784 17.1443 13.1336 17.1687 12.7889C17.1931 12.3948 17.0387 12.2553 16.6569 12.2635C15.4628 12.2799 14.2768 12.2799 13.0827 12.2635C12.7497 12.2635 12.5628 12.362 12.5872 12.7314C12.6034 12.9202 12.5872 13.1172 12.5872 13.306C12.5872 16.9426 12.5872 20.5791 12.5872 24.2157C12.5872 24.9791 12.5791 25.7508 12.5872 26.5142C12.5953 27.0806 12.6034 27.0888 13.1883 27.097C14.3256 27.1052 15.4628 27.1052 16.6001 27.097C17.1606 27.0888 17.1768 27.0806 17.1768 26.4896C17.1849 24.9052 17.1768 23.3209 17.1849 21.7284C17.1931 20.6366 17.1524 19.5366 17.2337 18.4448C17.3555 16.762 18.3547 15.8918 20.0199 15.9165C21.076 15.9329 21.7502 16.4336 22.0751 17.4433C22.2701 18.0508 22.3026 18.6747 22.3026 19.3068C22.3026 21.6873 22.3026 24.0679 22.3026 26.4485C22.3026 27.0806 22.3107 27.0888 22.9199 27.097C24.0003 27.1052 25.0888 27.1052 26.1692 27.097C26.8191 27.097 26.8272 27.0888 26.8272 26.4157C26.8272 23.5426 26.8272 20.6694 26.8272 17.8045C26.8272 16.7866 26.6485 15.7933 26.2992 14.8329C25.8199 13.5277 24.9345 12.5918 23.5942 12.2142C21.2059 11.5247 19.0208 11.7545 17.1606 13.8232ZM9.6872 19.6515C9.6872 19.1344 9.6872 18.6172 9.6872 18.0918C9.6872 16.3433 9.69532 14.5948 9.6872 12.8463C9.6872 12.2553 9.67095 12.2553 9.10233 12.2553C8.55807 12.2553 8.02194 12.2635 7.47768 12.2635C6.82782 12.2635 6.17797 12.2717 5.52811 12.2635C5.26004 12.2635 5.13007 12.3784 5.13819 12.6493C5.14632 12.8381 5.13819 13.0351 5.13819 13.2239C5.13819 16.1217 5.13819 19.0112 5.13819 21.909C5.13819 23.4687 5.14632 25.0202 5.13007 26.5799C5.13007 26.9739 5.25192 27.1052 5.64183 27.097C6.74659 27.0724 7.85947 27.097 8.96423 27.0888C9.66283 27.0888 9.67095 27.0806 9.67908 26.3664C9.6872 24.1254 9.6872 21.8926 9.6872 19.6515ZM7.39645 4.87544C5.94239 4.88365 4.7564 6.09036 4.76452 7.54335C4.77265 8.9717 5.99926 10.1866 7.42894 10.1784C8.85863 10.1702 10.0609 8.94707 10.0527 7.5023C10.0527 6.06574 8.84238 4.86723 7.39645 4.87544ZM143.907 15.3583C143.907 14.9232 143.899 14.4881 143.907 14.053C143.907 13.8971 143.875 13.6754 144.078 13.6426C144.508 13.5769 144.939 13.5851 145.369 13.6426C145.491 13.659 145.54 13.7657 145.54 13.8806C145.548 14.1023 145.548 14.3157 145.548 14.5374C145.548 18.7239 145.548 22.9105 145.548 27.097C145.548 30.0523 144.289 31.8746 141.535 32.8679C139.716 33.5246 137.847 33.7052 135.946 33.3112C135.037 33.1224 134.216 32.6955 133.461 32.1537C133.225 31.9814 133.095 31.7925 133.152 31.4642C133.241 30.9881 133.266 30.5037 133.315 30.044C133.591 29.9537 133.648 30.159 133.753 30.2575C134.931 31.3411 136.32 31.8664 137.904 31.8172C139.383 31.7761 140.804 31.4642 142.063 30.6187C143.274 29.7978 143.956 28.6896 143.907 27.1791C143.891 26.6702 143.907 26.1612 143.907 25.6523C143.542 25.6441 143.444 25.8739 143.298 26.0135C139.878 29.256 134.777 28.509 132.405 24.4209C130.577 21.2687 131.251 17.0985 133.981 14.7015C136.613 12.3866 140.463 12.4441 143.095 14.8411C143.306 15.0381 143.517 15.2351 143.729 15.4321C143.794 15.4075 143.85 15.3829 143.907 15.3583ZM133.16 20.456C133.16 21.0635 133.209 21.6545 133.404 22.2373C134.054 24.2321 135.345 25.5948 137.392 26.0381C139.407 26.4732 141.129 25.8082 142.469 24.2157C144.257 22.0732 144.2 18.7732 142.348 16.6881C140.203 14.2583 136.604 14.2993 134.509 16.7784C133.615 17.8374 133.185 19.0687 133.16 20.456ZM81.0985 15.4486C81.0985 14.9232 81.1066 14.4881 81.0985 14.053C81.0903 13.7411 81.2122 13.5933 81.5209 13.618C81.5453 13.618 81.5777 13.618 81.6021 13.618C82.9587 13.6344 82.7475 13.4702 82.7475 14.7097C82.7556 18.6993 82.7475 22.697 82.7556 26.6866C82.7556 27.7291 82.7637 27.5567 81.8864 27.5732C81.7483 27.5732 81.6184 27.5649 81.4803 27.5732C81.2041 27.5814 81.0903 27.4582 81.0985 27.1791C81.1066 26.6702 81.0985 26.1612 81.0985 25.6687C80.8142 25.6194 80.7329 25.7918 80.6273 25.8985C77.1018 29.5269 71.44 28.3612 69.3279 23.8299C67.7845 20.5135 68.7593 16.4911 71.643 14.3486C74.2993 12.3702 77.9629 12.6001 80.3755 14.8903C80.5623 15.0709 80.7086 15.3172 81.0985 15.4486ZM80.9766 20.4396C80.9604 20.0045 80.9279 19.4053 80.741 18.8224C80.0831 16.7948 78.759 15.4239 76.6794 14.9971C74.6974 14.5866 72.9915 15.2515 71.6755 16.8194C69.7909 19.0687 69.9534 22.4918 72.0086 24.5851C73.9744 26.5881 77.045 26.6948 79.1164 24.8149C80.343 23.6985 80.9523 22.2784 80.9766 20.4396ZM55.031 21.2605C55.1691 22.7956 55.8515 24.0597 57.0294 25.0284C59.6613 27.1955 63.0893 25.9314 64.6327 23.9694C64.7302 23.8381 64.8358 23.7067 64.9089 23.5672C65.0389 23.3373 65.1932 23.2635 65.4369 23.4112C65.575 23.4933 65.7293 23.5508 65.8755 23.6247C66.7366 24.0515 66.7447 24.0515 66.2167 24.8232C64.2265 27.7291 59.6694 29.412 56.1358 26.662C54.2187 25.1679 53.2521 23.1321 53.2358 20.6941C53.2196 17.6321 54.4462 15.2187 57.1674 13.7493C59.9537 12.2471 63.3005 13.0269 65.3394 15.5881C66.4442 16.9754 67.0047 18.5762 67.0534 20.3493C67.0778 21.1538 67.0534 21.162 66.2736 21.162C62.8375 21.162 59.4013 21.162 55.9652 21.1702C55.6728 21.162 55.3722 21.1045 55.031 21.2605ZM65.1445 19.4956C64.9576 16.9015 62.545 14.8165 59.9375 14.8986C57.5086 14.9806 55.1691 17.2053 55.1529 19.4956C58.4672 19.4956 61.7814 19.4956 65.1445 19.4956ZM96.8007 14.4717C96.8413 13.4784 96.7519 13.6262 95.8909 13.618C95.1923 13.6098 95.1679 13.503 95.1679 14.406C95.1679 18.5351 95.1679 22.6724 95.1679 26.8015C95.1679 26.9657 95.176 27.1299 95.176 27.294C95.1841 27.4993 95.2979 27.5814 95.4847 27.5814C95.5903 27.5814 95.704 27.5896 95.8096 27.5814C96.8819 27.5732 96.7925 27.6799 96.7925 26.6373C96.7925 24.1172 96.8169 21.6053 96.7763 19.0851C96.76 18.2642 97.0119 17.5911 97.4993 16.9754C98.3035 15.9575 99.327 15.2762 100.594 14.9971C102.755 14.5127 104.583 15.6456 105.046 17.7306C105.127 18.0836 105.111 18.4366 105.111 18.7896C105.111 21.4411 105.111 24.1008 105.111 26.7523C105.111 27.6552 105.07 27.5732 105.964 27.5814C106.792 27.5814 106.752 27.6224 106.752 26.7687C106.752 23.7888 106.76 20.8008 106.743 17.8209C106.735 15.6784 105.436 13.8971 103.405 13.2814C101.252 12.6247 99.2864 13.109 97.483 14.3978C97.2962 14.5292 97.1662 14.7754 96.9144 14.7754C96.7844 14.6851 96.7925 14.5702 96.8007 14.4717ZM118.758 14.5456C118.75 13.5769 118.912 13.618 117.848 13.618C117.133 13.618 117.125 13.6262 117.125 14.406C117.125 18.5105 117.125 22.615 117.125 26.7112C117.125 27.6634 117.06 27.5732 118.019 27.5732C118.75 27.5732 118.758 27.5649 118.758 26.7933C118.758 24.2485 118.798 21.7038 118.741 19.159C118.717 18.2314 119.026 17.5172 119.57 16.8441C120.074 16.2202 120.691 15.7359 121.406 15.3911C122.072 15.0627 122.771 14.8986 123.518 14.8903C125.524 14.8739 127.043 16.3351 127.06 18.3627C127.084 21.0717 127.06 23.7806 127.068 26.4896C127.076 27.6963 126.865 27.5732 128.148 27.5732C128.709 27.5732 128.725 27.5567 128.725 26.9657C128.733 25.2993 128.725 23.6329 128.725 21.9582C128.725 20.5627 128.749 19.1672 128.717 17.7717C128.66 15.5635 127.368 13.856 125.264 13.2403C123.136 12.6247 121.203 13.1336 119.432 14.406C119.237 14.5456 119.107 14.7672 118.79 14.8411C118.774 14.7097 118.766 14.6277 118.758 14.5456ZM40.6367 26.5881C40.6367 26.7769 40.6448 26.9739 40.6367 27.1627C40.6204 27.4911 40.7829 27.5978 41.0835 27.5814C41.2216 27.5732 41.3515 27.5814 41.4896 27.5814C44.7633 27.5814 48.0369 27.5814 51.3187 27.5814C51.4812 27.5814 51.6437 27.5732 51.8061 27.5814C52.0986 27.5896 52.196 27.409 52.1554 27.1627C52.0904 26.7605 52.3747 26.2926 51.9442 25.9642C51.8874 25.9232 51.7899 25.9396 51.7086 25.9396C51.5218 25.9396 51.3269 25.9396 51.14 25.9396C48.4025 25.9396 45.6731 25.9396 42.9356 25.9396C42.302 25.9396 42.302 25.9232 42.2857 25.3075C42.2776 25.1187 42.2857 24.9217 42.2857 24.7329C42.2857 18.4941 42.2857 12.2553 42.2857 6.02469C42.2857 4.80156 42.2857 4.81798 41.0672 4.90828C40.7667 4.9329 40.6204 5.03141 40.6367 5.34335C40.6448 5.53216 40.6367 5.72917 40.6367 5.91798C40.6367 9.3411 40.6367 12.756 40.6367 16.1791C40.6367 19.6351 40.6367 23.1075 40.6367 26.5881ZM88.0844 14.012C88.0926 13.7411 87.9788 13.6098 87.7026 13.618C87.5402 13.6262 87.3777 13.618 87.2153 13.618C86.4598 13.618 86.4517 13.618 86.4517 14.365C86.4517 17.0411 86.4517 19.7254 86.4517 22.4015C86.4517 23.8791 86.4517 25.3567 86.4517 26.8261C86.4517 27.5649 86.4598 27.5649 87.2153 27.5732C87.2721 27.5732 87.3209 27.5732 87.3777 27.5732C88.0763 27.5649 88.0844 27.5649 88.0844 26.8508C88.0844 24.1993 88.0844 21.5478 88.0844 18.8963C88.0844 18.5433 88.0926 18.1903 88.2632 17.862C89.0836 16.3351 90.3102 15.3583 91.9998 14.9642C92.3491 14.8821 92.8528 15.1202 93.0315 14.7015C93.1696 14.3732 93.0721 13.9463 93.0884 13.5687C93.0884 13.5441 93.0884 13.5112 93.0884 13.4866C93.1371 13.0598 92.9015 12.9695 92.5441 13.0105C91.5693 13.109 90.627 13.3389 89.7578 13.815C89.2136 14.1105 88.7343 14.5127 88.0844 14.9889C88.0844 14.5456 88.0763 14.2747 88.0844 14.012ZM113.201 20.6612C113.201 19.1836 113.201 17.706 113.201 16.2284C113.201 15.5142 113.201 14.8083 113.201 14.0941C113.201 13.815 113.161 13.6098 112.812 13.6098C111.699 13.618 110.594 13.6098 109.481 13.6098C109.343 13.6098 109.189 13.618 109.164 13.7903C109.107 14.2254 109.091 14.6605 109.172 15.0956C109.213 15.309 109.424 15.2597 109.578 15.2597C110.042 15.268 110.496 15.2515 110.959 15.268C111.528 15.2844 111.528 15.2926 111.544 15.8836C111.552 16.0478 111.544 16.212 111.544 16.3762C111.544 19.7993 111.544 23.2142 111.544 26.6373C111.544 27.7373 111.463 27.5732 112.511 27.5814C113.177 27.5814 113.185 27.5732 113.185 26.9082C113.21 24.8232 113.21 22.7381 113.201 20.6612ZM110.513 8.45454C110.529 9.38215 111.349 10.162 112.275 10.1292C113.177 10.0963 113.892 9.3411 113.9 8.4217C113.908 7.46126 113.153 6.71424 112.202 6.72245C111.26 6.73066 110.496 7.52693 110.513 8.45454Z" fill="#64748B"/>
</g>
</g>
<defs>
<clipPath id="clip0_1_12">
<rect width="145" height="33" fill="white" transform="translate(0.5 0.5)"/>
</clipPath>
</defs>
</svg>
