<svg width="92" height="35" viewBox="0 0 92 35" fill="none" xmlns="http://www.w3.org/2000/svg">
<g clip-path="url(#clip0_1_2)">
<path d="M14.55 8.612L7.524 4.556L0.5 8.612V4.556L7.525 0.5L14.551 4.556L14.55 8.612Z" fill="#64748B"/>
<path d="M0.5 12.018H4.18V20.959C4.18 23.269 5.905 24.395 7.525 24.395C9.159 24.395 10.871 23.239 10.871 20.928V12.018H14.551V21.172C14.551 23.3 13.882 24.942 12.544 26.068C11.205 27.193 9.533 27.741 7.494 27.741C5.457 27.741 3.784 27.194 2.477 26.068C1.169 24.943 0.5 23.362 0.5 21.263V12.018ZM46.366 23.13C45.252 24.122 43.983 24.608 42.536 24.608C39.896 24.608 38.126 23.104 37.926 20.775H49.816C49.816 20.775 49.896 20.023 49.896 19.317C49.896 17.127 49.196 15.302 47.766 13.812C46.368 12.322 44.544 11.592 42.323 11.592C39.982 11.592 38.065 12.322 36.544 13.812C35.054 15.302 34.294 17.248 34.294 19.682V19.802C34.294 22.205 35.054 24.121 36.544 25.551C38.034 26.98 40.011 27.71 42.414 27.71C45.208 27.71 47.431 26.608 49.099 24.708L46.366 23.13ZM39.372 15.667C40.192 15.028 41.197 14.694 42.322 14.694C43.386 14.694 44.268 15.028 45.029 15.698C45.755 16.308 46.147 17.057 46.181 17.918H38.02C38.138 17.028 38.588 16.278 39.373 15.668L39.372 15.667ZM83.41 29.776C81.917 33.301 80.355 34.5 77.96 34.5H76.3V31.238H77.642C78.466 31.238 79.232 30.928 79.962 29.244L80.692 27.558L74.396 12.018H78.137L82.608 23.21L87.201 12.018H90.941L83.41 29.776ZM28.877 6.149V13.406C27.671 12.326 25.795 11.683 23.981 11.683C21.821 11.683 19.997 12.443 18.507 13.993C17.047 15.514 16.317 17.399 16.317 19.68C16.317 21.962 17.047 23.847 18.507 25.398C19.997 26.919 21.822 27.68 23.981 27.68C26.471 27.68 28.045 26.701 28.877 25.934V27.345H32.527V6.15L28.877 6.149ZM27.782 23.027C26.9 23.909 25.775 24.366 24.467 24.366C23.159 24.366 22.095 23.909 21.213 23.027C20.363 22.145 19.936 21.02 19.936 19.682C19.936 18.343 20.362 17.218 21.213 16.336C22.095 15.454 23.159 14.998 24.467 14.998C25.775 14.998 26.9 15.454 27.782 16.336C28.694 17.218 29.152 18.343 29.152 19.682C29.152 21.02 28.694 22.145 27.782 23.027ZM68.722 11.714C65.95 11.714 64.509 12.864 63.522 13.972C63.127 13.219 62.015 11.714 59.417 11.714C57.221 11.714 55.927 12.824 55.281 13.614V12.02H51.663V27.347H55.281V18.527C55.281 16.459 56.559 14.969 58.261 14.969C59.996 14.969 60.999 16.277 60.999 18.375V27.346H64.618V18.526C64.618 16.428 65.864 14.968 67.658 14.968C69.392 14.968 70.395 16.276 70.395 18.373V27.345H74.045V17.857C74.045 13.861 71.897 11.715 68.722 11.715V11.714Z" fill="#64748B"/>
</g>
<defs>
<clipPath id="clip0_1_2">
<rect width="91" height="34" fill="white" transform="translate(0.5 0.5)"/>
</clipPath>
</defs>
</svg>
