<svg width="513" height="115" viewBox="0 0 513 115" fill="none" xmlns="http://www.w3.org/2000/svg">
<g clip-path="url(#clip0_1_23)">
<path d="M160.365 18.3497C158.483 11.3201 152.959 5.79591 145.929 3.9142C133.201 0.50023 82.1391 0.500229 82.1391 0.500229C82.1391 0.500229 31.0776 0.50023 18.3491 3.9142C11.3196 5.79591 5.79544 11.3201 3.91373 18.3497C0.499757 31.0781 0.499756 57.6506 0.499756 57.6506C0.499756 57.6506 0.499757 84.2232 3.91373 96.9518C5.79544 103.981 11.3196 109.505 18.3491 111.387C31.0776 114.801 82.1391 114.801 82.1391 114.801C82.1391 114.801 133.201 114.801 145.929 111.387C152.959 109.505 158.483 103.981 160.365 96.9518C163.779 84.2232 163.779 57.6506 163.779 57.6506C163.779 57.6506 163.765 31.0781 160.365 18.3497Z" fill="#64748B"/>
<path d="M65.7958 82.1419L108.215 57.6529L65.7958 33.1636V82.1419Z" fill="#F8FAFC"/>
<path d="M198.254 74.8163L179.921 8.60678H195.915L202.34 38.6201C203.98 46.0126 205.176 52.3163 205.955 57.5313H206.426C206.964 53.7948 208.173 47.5314 210.042 38.7277L216.695 8.60678H232.689L214.127 74.8163V106.577H198.241V74.8163H198.254Z" fill="#64748B"/>
<path d="M237.501 104.478C234.275 102.3 231.977 98.9132 230.605 94.3166C229.248 89.72 228.563 83.618 228.563 75.9833V65.5934C228.563 57.8918 229.342 51.6958 230.902 47.0318C232.461 42.3679 234.893 38.9539 238.2 36.8168C241.506 34.6797 245.847 33.6045 251.224 33.6045C256.52 33.6045 260.753 34.6932 263.952 36.8706C267.138 39.048 269.476 42.462 270.955 47.0856C272.433 51.7227 273.173 57.8918 273.173 65.5934V75.9833C273.173 83.618 272.447 89.7468 271.009 94.3703C269.571 99.0075 267.232 102.395 264.006 104.532C260.78 106.669 256.399 107.744 250.874 107.744C245.175 107.757 240.727 106.655 237.501 104.478ZM255.592 93.2684C256.479 90.9298 256.936 87.1259 256.936 81.8303V59.532C256.936 54.3974 256.493 50.634 255.592 48.2684C254.692 45.8894 253.119 44.7066 250.861 44.7066C248.684 44.7066 247.138 45.8894 246.251 48.2684C245.35 50.6474 244.907 54.3974 244.907 59.532V81.8303C244.907 87.1259 245.337 90.943 246.197 93.2684C247.057 95.607 248.603 96.7763 250.861 96.7763C253.119 96.7763 254.692 95.607 255.592 93.2684Z" fill="#64748B"/>
<path d="M325.202 106.591H312.595L311.197 97.8273H310.847C307.42 104.44 302.285 107.746 295.431 107.746C290.686 107.746 287.178 106.187 284.92 103.083C282.662 99.9642 281.533 95.099 281.533 88.4861V35.0048H297.649V87.5448C297.649 90.7441 297.998 93.0153 298.697 94.3732C299.396 95.7305 300.565 96.4157 302.205 96.4157C303.603 96.4157 304.947 95.9859 306.237 95.1258C307.528 94.2651 308.468 93.1764 309.1 91.8597V34.9914H325.202V106.591Z" fill="#64748B"/>
<path d="M368.98 21.5749H352.985V106.588H337.219V21.5749H321.224V8.61792H368.98V21.5749Z" fill="#64748B"/>
<path d="M407.849 106.591H395.242L393.844 97.8273H393.495C390.068 104.44 384.933 107.746 378.078 107.746C373.333 107.746 369.826 106.187 367.568 103.083C365.31 99.9642 364.18 95.099 364.18 88.4861V35.0048H380.296V87.5448C380.296 90.7441 380.645 93.0153 381.344 94.3732C382.043 95.7305 383.212 96.4157 384.853 96.4157C386.25 96.4157 387.594 95.9859 388.885 95.1258C390.175 94.2651 391.116 93.1764 391.747 91.8597V34.9914H407.849V106.591Z" fill="#64748B"/>
<path d="M461.183 46.4417C460.202 41.9256 458.629 38.6595 456.452 36.6299C454.275 34.6004 451.277 33.5923 447.46 33.5923C444.503 33.5923 441.734 34.4256 439.167 36.1057C436.6 37.7858 434.611 39.9767 433.213 42.7052H433.092V4.99022H417.568V106.576H430.874L432.514 99.8019H432.864C434.113 102.221 435.982 104.116 438.468 105.528C440.955 106.926 443.724 107.625 446.761 107.625C452.205 107.625 456.224 105.111 458.791 100.097C461.358 95.0704 462.648 87.2345 462.648 76.5628V65.2322C462.648 57.2347 462.151 50.9578 461.183 46.4417ZM446.412 75.6484C446.412 80.8634 446.197 84.9496 445.766 87.9066C445.337 90.8636 444.624 92.9741 443.603 94.2103C442.595 95.4602 441.224 96.0785 439.516 96.0785C438.186 96.0785 436.963 95.7694 435.834 95.1378C434.705 94.5195 433.791 93.5788 433.092 92.342V51.7105C433.629 49.7616 434.571 48.1756 435.901 46.9256C437.218 45.6756 438.67 45.0573 440.215 45.0573C441.856 45.0573 443.119 45.7025 444.006 46.9794C444.906 48.2697 445.525 50.4202 445.874 53.4578C446.224 56.4954 446.398 60.8099 446.398 66.4146V75.6484H446.412Z" fill="#64748B"/>
<path d="M485.51 79.7747C485.51 84.3713 485.645 87.8123 485.914 90.1109C486.183 92.4089 486.747 94.076 487.607 95.1378C488.467 96.186 489.785 96.71 491.572 96.71C493.978 96.71 495.645 95.7693 496.532 93.9011C497.433 92.0328 497.917 88.9147 497.997 84.5599L511.895 85.3794C511.976 85.9978 512.016 86.8579 512.016 87.9466C512.016 94.5595 510.201 99.5058 506.586 102.772C502.97 106.038 497.849 107.678 491.236 107.678C483.293 107.678 477.728 105.191 474.543 100.205C471.344 95.2184 469.758 87.5168 469.758 77.0863V64.5864C469.758 53.8474 471.412 45.9979 474.718 41.0517C478.024 36.1055 483.683 33.6324 491.707 33.6324C497.231 33.6324 501.478 34.6404 504.435 36.67C507.392 38.6995 509.475 41.8447 510.685 46.1323C511.895 50.4199 512.5 56.3339 512.5 63.8874V76.1456H485.51V79.7747ZM487.554 46.0383C486.733 47.0463 486.196 48.6995 485.914 50.9979C485.645 53.2963 485.51 56.7775 485.51 61.4551V66.5895H497.298V61.4551C497.298 56.8581 497.137 53.377 496.828 50.9979C496.519 48.6189 495.954 46.9522 495.134 45.9711C494.314 45.0033 493.051 44.506 491.344 44.506C489.624 44.5194 488.36 45.0302 487.554 46.0383Z" fill="#64748B"/>
</g>
<defs>
<clipPath id="clip0_1_23">
<rect width="512" height="114.301" fill="white" transform="translate(0.5 0.5)"/>
</clipPath>
</defs>
</svg>
